<svg width="72" height="67" viewBox="0 0 72 67" fill="none" xmlns="http://www.w3.org/2000/svg">
<g clip-path="url(#clip0)">
<path d="M71.6455 34.3769L63.8474 23.6884L71.6455 12.9999C72.01 12.4901 72.0986 11.8537 71.8864 11.2748C71.6722 10.6959 71.1819 10.2415 70.5578 10.05L45.1049 2.19847C44.1943 1.9128 43.2097 2.23485 42.6824 2.97093L35.9999 12.2984L29.3175 2.97093C28.786 2.23105 27.7931 1.91084 26.8949 2.19847L1.442 10.05C0.817913 10.2417 0.327557 10.696 0.113387 11.2748C-0.0988146 11.8537 -0.0102215 12.4901 0.354416 13L8.15257 23.6886L0.354557 34.3769C-0.0100809 34.8868 -0.098674 35.5233 0.113527 36.1022C0.327698 36.6811 0.818053 37.1354 1.44214 37.327L26.8951 45.1785C27.7908 45.4588 28.7873 45.1459 29.3176 44.406L36 35.0786L42.6825 44.406C43.2132 45.1467 44.2102 45.4587 45.105 45.1785L70.5579 37.327C71.182 37.1353 71.6724 36.681 71.8866 36.1022C72.0988 35.5233 72.0102 34.8869 71.6455 34.3769ZM36 29.4717L17.3557 23.6886L36 17.9054L54.6444 23.6886L36 29.4717Z" fill="white"/>
<path d="M46.4394 48.9034C43.7844 49.7323 40.7827 48.8334 39.172 46.584L35.9999 42.1562L32.8274 46.584C31.22 48.8291 28.2217 49.7362 25.5497 48.8995L8.57812 43.6356V55.0949C8.57812 55.9402 9.15904 56.6898 10.0201 56.9562L35.32 64.8039C35.3962 64.8288 35.4724 64.848 35.5487 64.8633C35.5487 64.8633 35.5508 64.8633 35.5508 64.8653H35.5529C35.7012 64.8941 35.8516 64.9094 35.9999 64.9094C36.1585 64.9094 36.3151 64.8921 36.4716 64.8595C36.5416 64.8442 36.6095 64.8269 36.6776 64.8059L61.9796 56.9563C62.8405 56.6898 63.4214 55.9402 63.4214 55.0949V43.6359L46.4394 48.9034Z" fill="white"/>
</g>
<defs>
<clipPath id="clip0">
<rect width="72" height="67" fill="white"/>
</clipPath>
</defs>
</svg>
