<svg width="98" height="96" viewBox="0 0 98 96" fill="none" xmlns="http://www.w3.org/2000/svg">
<g clip-path="url(#clip0)">
<path d="M56.2076 12.5545C62.388 13.5081 68.1206 15.6746 72.7859 18.8189C77.2975 21.8599 80.6145 25.67 82.3788 29.8382C82.6817 30.5552 83.3794 30.9859 84.1138 30.9859C84.3578 30.9859 84.6056 30.9383 84.8445 30.838C85.8024 30.4351 86.2508 29.3358 85.8472 28.3814C83.7991 23.5423 80.0117 19.1617 74.895 15.7127C69.7725 12.2601 63.5098 9.8863 56.7832 8.84846C55.7577 8.69026 54.7946 9.39118 54.6358 10.4151C54.4763 11.4376 55.1799 12.3956 56.2076 12.5545Z" fill="white"/>
<path d="M19.6348 26.6195C19.9325 27.3314 20.6905 27.8112 21.4638 27.7746C22.2277 27.7379 22.929 27.1996 23.1613 26.4738C23.3965 25.7392 23.1334 24.8815 22.5158 24.4135C21.877 23.9301 20.9382 23.9125 20.2825 24.3739C19.5848 24.8646 19.3121 25.8351 19.6348 26.6195Z" fill="white"/>
<path d="M28.7028 19.6363C29.0035 20.3563 29.7746 20.8411 30.5576 20.7913C31.3126 20.7422 31.9992 20.2061 32.2308 19.4891C32.4668 18.7596 32.2021 17.91 31.5949 17.4398C30.9531 16.9439 29.9981 16.9234 29.3394 17.3987C28.6543 17.8931 28.3764 18.8563 28.7028 19.6363Z" fill="white"/>
<path d="M38.4433 26.6195C38.741 27.3314 39.4997 27.8112 40.273 27.7746C41.0369 27.7379 41.7397 27.1996 41.972 26.4738C42.2072 25.7384 41.9426 24.8808 41.3243 24.4135C40.6855 23.9301 39.7474 23.9125 39.0909 24.3739C38.394 24.8646 38.1205 25.8351 38.4433 26.6195Z" fill="white"/>
<path d="M97.1072 60.4258C97.1072 56.2971 94.4445 52.7786 90.7416 51.4785V46.7866C91.337 46.5676 91.9104 46.2791 92.4493 45.9187C94.5923 44.4839 95.8214 42.2192 95.8214 39.7034C95.8214 38.1301 95.3333 36.6411 94.4261 35.3887C94.8849 34.3054 95.0231 33.1028 94.8003 31.9177C93.1889 23.3308 87.6547 15.4705 79.2174 9.7832C70.8139 4.11938 60.0573 1 48.9286 1C37.7999 1 27.0433 4.11938 18.6398 9.7832C10.2025 15.4697 4.66833 23.3308 3.05689 31.9177C2.77754 33.4038 3.06498 34.917 3.84276 36.1877C3.25685 37.2585 2.95177 38.4509 2.95177 39.7034C2.95177 42.2192 4.18093 44.4854 6.32462 45.9194C6.58045 46.0908 6.84584 46.2439 7.11564 46.3838V51.4785C3.4127 52.7786 0.75 56.2971 0.75 60.4258V60.8066C0.75 63.5415 1.91962 66.0083 3.78469 67.7412C3.24068 68.7842 2.95177 69.9443 2.95177 71.1389C2.95177 73.0161 3.63692 74.7527 4.87418 76.1099V82.876C4.87418 90.1042 10.7767 95.9856 18.0326 95.9856H79.8246C87.0805 95.9856 92.983 90.1042 92.983 82.876V76.9602C94.7937 75.5225 95.8214 73.4358 95.8214 71.1382C95.8214 69.6975 95.4142 68.3337 94.6533 67.1545C96.1772 65.4729 97.1072 63.2463 97.1072 60.8066V60.4258ZM93.3433 60.4258V60.8066C93.3433 62.7424 92.3743 64.4563 90.8952 65.4956C89.9314 66.1724 88.7662 66.5415 87.5871 66.5415H58.4039L70.4052 54.6909H87.5863C90.7607 54.6909 93.3433 57.2639 93.3433 60.4258ZM29.2744 54.6909L29.5729 54.989L31.5034 56.9116L27.4623 60.9385L21.1915 54.6909H29.2744ZM47.0437 67.0908L35.4975 55.5881C35.4975 55.5874 35.4967 55.5867 35.496 55.5859L34.5976 54.6909H65.0504L52.4727 67.0835C52.472 67.0842 52.4713 67.085 52.4705 67.0864C52.4691 67.0879 52.4669 67.0894 52.4654 67.0908L49.7542 69.792L47.0437 67.0908ZM6.75615 32.6062C8.1816 25.0125 13.1512 18.0098 20.7489 12.8887C28.5364 7.64014 38.5439 4.75 48.9286 4.75C59.3133 4.75 69.3208 7.64014 77.1083 12.8887C84.706 18.0098 89.6749 25.0125 91.1011 32.6062C91.365 34.0146 90.2358 35.3601 88.8008 35.3601H9.05643C7.61921 35.3601 6.49223 34.0146 6.75615 32.6062ZM6.85466 38.7021C7.55379 38.9717 8.30731 39.1101 9.05643 39.1101H88.8008C89.8395 39.1101 90.8842 38.842 91.7899 38.3345C91.9671 38.7681 92.0575 39.2346 92.0575 39.7026C92.0575 40.9485 91.4355 42.0793 90.3505 42.8052C89.2411 43.5479 87.8282 43.7258 86.5593 43.3259C85.9322 43.1282 85.3404 42.8733 84.6935 42.7356C83.9937 42.5862 83.2776 42.5203 82.5623 42.5203C79.2005 42.5203 77.3964 43.7888 75.9475 44.8076C74.6757 45.7026 73.6714 46.4094 71.5042 46.4094C69.337 46.4094 68.3328 45.7026 67.061 44.8083C65.612 43.7881 63.8087 42.5203 60.4462 42.5203C57.0843 42.5203 55.281 43.7888 53.832 44.8083C52.5602 45.7026 51.556 46.4094 49.3888 46.4094C47.2216 46.4094 46.2166 45.7026 44.9448 44.8076C43.4959 43.7881 41.6926 42.5203 38.3307 42.5203C34.9689 42.5203 33.1648 43.7888 31.7159 44.8076C30.4441 45.7026 29.4391 46.4094 27.2726 46.4094C25.1047 46.4094 24.1005 45.7026 22.8279 44.8076C21.379 43.7881 19.5756 42.5203 16.2131 42.5203C14.8832 42.5203 13.6842 42.7451 12.5469 43.2073C11.2038 43.7537 9.63205 43.6152 8.42347 42.8059C7.33839 42.0801 6.71645 40.9492 6.71645 39.7034C6.71572 39.3584 6.76277 39.0229 6.85466 38.7021ZM11.2538 47.2781C12.2411 47.2305 13.1674 46.9822 14.0863 46.6335C15.003 46.2849 16.0028 46.2161 16.974 46.3025C18.6354 46.4497 19.544 47.0891 20.657 47.8713C22.106 48.8909 23.9093 50.1594 27.2719 50.1594C30.6337 50.1594 32.437 48.8909 33.886 47.8713C35.1578 46.9771 36.1628 46.2703 38.33 46.2703C40.4972 46.2703 41.5014 46.9771 42.7732 47.8713C44.2222 48.8909 46.0262 50.1594 49.3881 50.1594C52.7499 50.1594 54.5532 48.8909 56.0022 47.8713C57.274 46.9771 58.2789 46.2703 60.4454 46.2703C62.6126 46.2703 63.6176 46.9771 64.8894 47.8713C66.3384 48.8909 68.1417 50.1594 71.5035 50.1594C74.8653 50.1594 76.6686 48.8909 78.1176 47.8713C79.3902 46.9771 80.3944 46.2703 82.5616 46.2703C83.3305 46.2703 84.0855 46.3977 84.8023 46.6782C85.5014 46.9521 86.2292 47.1492 86.9769 47.2363V50.9417H69.6311C69.6303 50.9417 69.6303 50.9417 69.6296 50.9417H30.0596C30.0581 50.9417 30.0559 50.9417 30.0544 50.9417C30.0522 50.9417 30.05 50.9417 30.0486 50.9417H10.8796V47.2883C11.0046 47.2876 11.1288 47.2839 11.2538 47.2781ZM4.51395 60.4258C4.51395 57.2639 7.09653 54.6909 10.2702 54.6909H15.869L26.1317 64.9163C26.4846 65.2678 26.9631 65.4648 27.4623 65.4648C27.9615 65.4648 28.4401 65.2678 28.7929 64.9163L34.1654 59.5637L41.1691 66.5415H10.2702C9.2755 66.5415 8.28673 66.2793 7.42367 65.7878C5.68725 64.7998 4.51395 62.938 4.51395 60.8066V60.4258ZM7.02669 69.7239C8.06251 70.0981 9.16817 70.2915 10.2702 70.2915H44.9331L48.4236 73.769C49.1455 74.489 50.3548 74.4905 51.0789 73.7749L54.6069 70.2915H87.5863C88.6479 70.2915 89.7079 70.1121 90.7107 69.7664C90.9209 69.6938 91.1356 69.6206 91.3334 69.5195C91.3973 69.4866 91.4899 69.4133 91.5657 69.4185C91.6701 69.4258 91.6973 69.5583 91.7347 69.6418C91.9384 70.0894 92.0472 70.5793 92.056 71.0708C92.0876 72.8396 90.8092 74.3198 89.1397 74.8018C88.1833 75.0786 87.1474 75.0171 86.2256 74.6421C85.0905 74.1799 83.8915 73.9551 82.5616 73.9551C79.1998 73.9551 77.3964 75.2236 75.9475 76.2432C74.6749 77.1382 73.6707 77.845 71.5035 77.845C69.337 77.845 68.3321 77.1382 67.0603 76.2432C65.6113 75.2236 63.808 73.9551 60.4462 73.9551C57.0843 73.9551 55.281 75.2236 53.8313 76.2432C52.5595 77.1382 51.5553 77.845 49.3881 77.845C47.2209 77.845 46.2166 77.1382 44.9441 76.2432C43.4951 75.2236 41.6918 73.9551 38.33 73.9551C34.9682 73.9551 33.1648 75.2236 31.7151 76.2432C30.4433 77.1382 29.4391 77.845 27.2719 77.845C25.104 77.845 24.0997 77.1375 22.8279 76.2432C21.3782 75.2236 19.5749 73.9551 16.2123 73.9551C14.8825 73.9551 13.6834 74.1799 12.5469 74.6428C11.3185 75.1423 9.88641 75.0764 8.72708 74.426C7.70155 73.8511 6.93773 72.8652 6.75836 71.6941C6.70469 71.3477 6.70175 70.9932 6.74807 70.6453C6.7613 70.5442 6.93406 69.6902 7.02669 69.7239ZM89.2191 82.876C89.2191 88.0366 85.0045 92.2356 79.8246 92.2356H18.0326C12.8527 92.2356 8.63813 88.0366 8.63813 82.876V78.4287C10.1834 78.8652 11.8515 78.8345 13.4408 78.3079C13.4732 78.2969 13.5055 78.2859 13.5371 78.2756C13.682 78.2251 13.8268 78.1731 13.9694 78.1145C14.6458 77.8391 15.3794 77.7058 16.2123 77.7058C18.3803 77.7058 19.3845 78.4119 20.6563 79.3069C22.106 80.3264 23.9093 81.595 27.2719 81.595C30.6337 81.595 32.437 80.3264 33.886 79.3069C35.1578 78.4119 36.1628 77.7058 38.3293 77.7058C40.4965 77.7058 41.5014 78.4119 42.7732 79.3069C44.2222 80.3264 46.0255 81.595 49.3881 81.595C52.7499 81.595 54.5532 80.3264 56.0022 79.3069C57.274 78.4119 58.2789 77.7058 60.4454 77.7058C62.6126 77.7058 63.6176 78.4119 64.8886 79.3069C66.3376 80.3264 68.1417 81.595 71.5035 81.595C74.8653 81.595 76.6686 80.3264 78.1176 79.3069C79.3894 78.4119 80.3944 77.7058 82.5616 77.7058C83.1225 77.7058 83.6849 77.7681 84.2267 77.9182C84.742 78.061 85.2287 78.2866 85.744 78.4316C86.8629 78.7458 88.0708 78.8125 89.2183 78.6265L89.2191 82.876Z" fill="white"/>
<path d="M43.2653 19.6384C43.5631 20.3503 44.3217 20.8337 45.0959 20.7942C45.8597 20.7553 46.5603 20.2192 46.7933 19.4941C47.03 18.7588 46.7646 17.9026 46.1478 17.4331C45.5105 16.9475 44.5702 16.9292 43.9152 17.3928C43.2205 17.8835 42.9367 18.854 43.2653 19.6384Z" fill="white"/>
<path d="M51.7519 27.9027C52.0496 28.6154 52.8075 29.0944 53.5809 29.0577C54.3455 29.0211 55.0446 28.4821 55.2791 27.7577C55.5165 27.0231 55.2504 26.1647 54.6329 25.6967C53.9941 25.2125 53.0553 25.1964 52.3995 25.6571C51.7026 26.1478 51.4291 27.1183 51.7519 27.9027Z" fill="white"/>
<path d="M46.9491 11.0672C47.6188 11.5117 48.5605 11.4678 49.1832 10.9595C49.7919 10.4629 50.0352 9.58327 49.7544 8.84938C49.4809 8.13674 48.7561 7.62917 47.9878 7.63283C47.2277 7.63723 46.5051 8.13454 46.236 8.84353C45.9353 9.63747 46.2426 10.594 46.9491 11.0672Z" fill="white"/>
</g>
<defs>
<clipPath id="clip0">
<rect width="96.3572" height="96" fill="white" transform="translate(0.75)"/>
</clipPath>
</defs>
</svg>
