<svg width="72" height="55" viewBox="0 0 72 55" fill="none" xmlns="http://www.w3.org/2000/svg">
<path d="M45.4908 29.9951V31.644H26.5078V29.9951C26.5078 25.1258 30.7631 21.1647 35.993 21.1621H35.9986H36H36.0042C41.2355 21.1646 45.4908 25.1257 45.4908 29.9951Z" fill="white"/>
<path d="M66.6194 0.451172H5.38281C4.21844 0.451172 3.27344 1.32924 3.27344 2.41406V6.99414H68.7287V2.41406C68.7287 1.32924 67.7837 0.451172 66.6194 0.451172ZM3.27344 10.9199V38.6778H25.0098C28.1261 38.6778 30.8542 40.2586 32.3153 42.6036H39.6869C41.148 40.2586 43.8761 38.6778 46.9923 38.6778H68.7287V10.9199H3.27344ZM50.5712 35.5712C49.4333 35.5712 22.495 35.5712 21.4309 35.5712C20.2652 35.5712 19.3216 34.6931 19.3216 33.6083C19.3216 32.5248 20.2652 31.6454 21.4309 31.6454H22.2916V29.9966C22.2916 23.629 27.3302 18.3357 33.8917 17.3883V16.1543C33.8917 15.0712 34.8339 14.1901 36.0011 14.1901C37.1655 14.1901 38.1105 15.0695 38.1105 16.153V17.3883C44.6734 18.3357 49.712 23.629 49.712 29.9966V31.6454H50.5712C51.737 31.6454 52.6806 32.5248 52.6806 33.6083C52.6806 34.693 51.737 35.5712 50.5712 35.5712Z" fill="white"/>
<path d="M72 44.5664V44.5377C72 50.0574 67.1752 54.5459 61.245 54.5459H10.755C4.82484 54.5459 0 50.0574 0 44.5377V44.5664C0 43.4829 0.945 42.6035 2.10938 42.6035H25.0087C27.3347 42.6035 29.2275 44.3649 29.2275 46.5293H42.7725C42.7725 44.3649 44.6653 42.6035 46.9912 42.6035H69.8906C71.055 42.6035 72 43.4829 72 44.5664Z" fill="white"/>
</svg>
