<svg width="72" height="67" viewBox="0 0 72 67" fill="none" xmlns="http://www.w3.org/2000/svg">
<path d="M65.6719 17.8798H61.2533C57.4952 8.43466 49.2202 1.57075 39.6935 0.259836C30.2528 -1.07237 20.9769 2.77391 14.9084 10.5165C13.1244 12.7928 11.7093 15.2676 10.6732 17.8798H6.32812C2.83866 17.8798 0 20.8844 0 24.578V33.509C0 37.2025 2.83866 40.2072 6.32812 40.2072H14.9908L14.0844 37.2789C11.4456 28.7491 12.9309 20.0339 18.1569 13.3684C23.2924 6.81621 31.1345 3.57397 39.1456 4.68603C47.6179 5.8542 54.9719 12.1962 57.8856 20.8472L57.9033 20.8974C58.373 22.2187 58.7026 23.5771 58.8921 24.9748C59.5245 29.1504 59.164 33.3824 57.8519 37.2135L57.8426 37.2402C54.5856 47.0284 45.8255 53.6037 36.0412 53.6037C32.529 53.6037 29.6719 56.6083 29.6719 60.3019C29.6719 63.9954 32.5105 67.0001 36 67.0001C39.4895 67.0001 42.3281 63.9954 42.3281 60.3019V57.2907C50.7507 55.1716 57.8253 48.8519 61.2257 40.207H65.6719C69.1613 40.207 72 37.2024 72 33.5088V24.5778C72 20.8843 69.1613 17.8798 65.6719 17.8798Z" fill="white"/>
<path d="M17.0195 44.673V49.1384H36.0039C46.4725 49.1384 54.9883 40.1246 54.9883 29.0438C54.9883 17.9631 46.4725 8.94922 36.0039 8.94922C25.5354 8.94922 17.0195 17.9631 17.0195 29.0438C17.0195 33.5617 18.4532 37.9268 21.0735 41.4569C20.5647 43.3385 18.9415 44.673 17.0195 44.673ZM42.332 26.8111H46.5508V31.2766H42.332V26.8111ZM33.8945 26.8111H38.1133V31.2766H33.8945V26.8111ZM25.457 26.8111H29.6758V31.2766H25.457V26.8111Z" fill="white"/>
</svg>
