<svg width="81" height="67" viewBox="0 0 81 67" fill="none" xmlns="http://www.w3.org/2000/svg">
<g clip-path="url(#clip0)">
<path d="M49.0699 6.39933V3.82869C49.0699 1.71435 46.998 0 44.4412 0C41.8851 0 39.8125 1.71435 39.8125 3.82869V6.45856C42.8834 6.12074 45.9933 6.1008 49.0699 6.39933Z" fill="white"/>
<path d="M71.5631 45.5955C71.5524 45.6014 71.5418 45.6067 71.5312 45.612L59.5169 51.6383C59.7183 52.1972 59.8473 52.772 59.9012 53.3538C59.9622 54.0148 59.3638 54.5919 58.564 54.6429L39.9406 55.8189C39.903 55.8212 39.8655 55.8224 39.8279 55.8224C39.0479 55.8218 38.4076 55.3115 38.3779 54.6664C38.3488 54.0212 38.9409 53.4723 39.7194 53.4236L56.7445 52.3485C55.8107 49.7274 52.7923 48.002 49.498 48.2066L38.168 48.9222C35.9182 49.0618 33.6598 48.7814 31.5596 48.1011L30.3485 47.7075C24.4357 45.7732 17.7181 46.663 12.832 50.0283L14.0771 63.5191L15.7987 62.5537C17.6373 61.5203 19.8893 61.1179 22.0795 61.4317L41.809 64.2328C45.5641 64.5384 49.3406 63.8569 52.6001 62.2839L77.2958 45.8378C75.6465 44.7469 73.3385 44.6489 71.5631 45.5955Z" fill="white"/>
<path d="M11.3171 38.8036C12.7252 41.1215 15.6054 42.5748 18.7416 42.5502H70.7827C73.9188 42.5748 76.799 41.1215 78.2065 38.8036L81.0399 33.8418H8.48438L11.3171 38.8036Z" fill="white"/>
<path d="M0.0429688 46.8439L9.57196 46.2422L11.4318 66.3991L1.90353 67.0009L0.0429688 46.8439Z" fill="white"/>
<path d="M66.9231 15.6298C61.0216 11.1003 53.1518 8.59766 44.763 8.59766C36.3749 8.59766 28.5051 11.0973 22.6036 15.6269C17.0673 19.8767 13.878 25.4332 13.5312 31.439H75.9955C75.6487 25.4332 72.4594 19.8796 66.9231 15.6298Z" fill="white"/>
</g>
<defs>
<clipPath id="clip0">
<rect width="81" height="67" fill="white"/>
</clipPath>
</defs>
</svg>
