<svg width="24" height="23" viewBox="0 0 24 23" fill="none" xmlns="http://www.w3.org/2000/svg">
<g clip-path="url(#clip0)">
<path d="M23.8857 6.76206C23.8316 5.53998 23.6333 4.69982 23.3491 3.9718C23.056 3.19903 22.605 2.50717 22.0141 1.93202C21.4368 1.34792 20.7378 0.89405 19.9712 0.606564C19.2362 0.323466 18.3973 0.125841 17.1707 0.0719592C15.9349 0.0135143 15.5426 0 12.4083 0C9.27402 0 8.8817 0.0135143 7.6505 0.067396C6.42387 0.121278 5.58058 0.319078 4.85003 0.602001C4.07421 0.89405 3.37977 1.34336 2.80249 1.93202C2.21621 2.50717 1.76083 3.20359 1.4721 3.96741C1.18795 4.69982 0.98959 5.53542 0.935508 6.7575C0.876846 7.9887 0.863281 8.37957 0.863281 11.5022C0.863281 14.6249 0.876846 15.0158 0.930928 16.2424C0.98501 17.4645 1.18355 18.3047 1.4677 19.0327C1.76083 19.8055 2.21621 20.4973 2.80249 21.0725C3.37977 21.6566 4.07879 22.1104 4.84545 22.3979C5.58058 22.681 6.41929 22.8787 7.64609 22.9325C8.87712 22.9866 9.26961 22.9999 12.4039 22.9999C15.5382 22.9999 15.9305 22.9866 17.1617 22.9325C18.3883 22.8787 19.2316 22.681 19.9622 22.3979C21.5137 21.8003 22.7403 20.5782 23.3401 19.0327C23.6241 18.3003 23.8226 17.4645 23.8767 16.2424C23.9308 15.0158 23.9444 14.6249 23.9444 11.5022C23.9444 8.37957 23.9398 7.9887 23.8857 6.76206ZM21.8068 16.1526C21.7571 17.2758 21.5677 17.8824 21.4099 18.2868C21.022 19.2888 20.2238 20.084 19.2181 20.4705C18.8122 20.6277 18.199 20.8164 17.0759 20.8657C15.8583 20.9198 15.4931 20.9331 12.4129 20.9331C9.33268 20.9331 8.96291 20.9198 7.74968 20.8657C6.62223 20.8164 6.01341 20.6277 5.60753 20.4705C5.10705 20.2862 4.65149 19.9941 4.28173 19.6122C3.8984 19.2393 3.60526 18.79 3.42029 18.2913C3.26245 17.887 3.07307 17.2758 3.02357 16.1571C2.96931 14.944 2.95592 14.58 2.95592 11.5112C2.95592 8.4424 2.96931 8.074 3.02357 6.86544C3.07307 5.74217 3.26245 5.13561 3.42029 4.73123C3.60526 4.23243 3.8984 3.77874 4.28631 3.41017C4.66048 3.02826 5.11146 2.73621 5.61211 2.5521C6.01799 2.39484 6.63139 2.20617 7.75426 2.15667C8.9719 2.10279 9.33726 2.08928 12.4173 2.08928C15.5021 2.08928 15.8673 2.10279 17.0805 2.15667C18.208 2.20617 18.8168 2.39484 19.2227 2.5521C19.7231 2.73621 20.1787 3.02826 20.5485 3.41017C20.9318 3.78313 21.2249 4.23243 21.4099 4.73123C21.5677 5.13561 21.7571 5.74656 21.8068 6.86544C21.8609 8.07857 21.8744 8.4424 21.8744 11.5112C21.8744 14.58 21.8609 14.9394 21.8068 16.1526Z" fill="white"/>
<path d="M12.4069 5.59375C9.13293 5.59375 6.47656 8.2401 6.47656 11.5021C6.47656 14.7642 9.13293 17.4105 12.4069 17.4105C15.6811 17.4105 18.3373 14.7642 18.3373 11.5021C18.3373 8.2401 15.6811 5.59375 12.4069 5.59375ZM12.4069 15.3348C10.2829 15.3348 8.56005 13.6184 8.56005 11.5021C8.56005 9.38583 10.2829 7.66951 12.4069 7.66951C14.5311 7.66951 16.2538 9.38583 16.2538 11.5021C16.2538 13.6184 14.5311 15.3348 12.4069 15.3348Z" fill="white"/>
<path d="M19.9605 5.3598C19.9605 6.12152 19.3406 6.73914 18.5759 6.73914C17.8113 6.73914 17.1914 6.12152 17.1914 5.3598C17.1914 4.59791 17.8113 3.98047 18.5759 3.98047C19.3406 3.98047 19.9605 4.59791 19.9605 5.3598Z" fill="white"/>
</g>
<defs>
<clipPath id="clip0">
<rect width="23.0856" height="23" fill="white" transform="translate(0.824219)"/>
</clipPath>
</defs>
</svg>
