<svg width="98" height="96" viewBox="0 0 98 96" fill="none" xmlns="http://www.w3.org/2000/svg">
<g clip-path="url(#clip0)">
<path d="M51.8493 75.0237C51.8493 71.1748 48.7058 68.043 44.8426 68.043C40.9787 68.043 37.8359 71.1748 37.8359 75.0237C37.8359 78.8726 40.9794 82.0037 44.8426 82.0037C48.7058 82.0037 51.8493 78.8726 51.8493 75.0237ZM40.6589 75.0237C40.6589 72.7253 42.5357 70.8555 44.8426 70.8555C47.1495 70.8555 49.0263 72.7253 49.0263 75.0237C49.0263 77.322 47.1495 79.1912 44.8426 79.1912C42.5357 79.1912 40.6589 77.322 40.6589 75.0237Z" fill="white"/>
<path d="M27.4005 59.2051C23.5373 59.2051 20.3945 62.3362 20.3945 66.1851C20.3945 70.0339 23.5373 73.1658 27.4005 73.1658C31.2644 73.1658 34.4072 70.0339 34.4072 66.1851C34.4072 62.3362 31.2644 59.2051 27.4005 59.2051ZM27.4005 70.3533C25.0943 70.3533 23.2175 68.4834 23.2175 66.1851C23.2175 63.8867 25.0943 62.0176 27.4005 62.0176C29.7074 62.0176 31.5842 63.8867 31.5842 66.1851C31.5842 68.4834 29.7074 70.3533 27.4005 70.3533Z" fill="white"/>
<path d="M32.0067 30.4922C28.1428 30.4922 25 33.624 25 37.4729C25 41.3218 28.1428 44.4536 32.0067 44.4536C35.8699 44.4536 39.0126 41.3218 39.0126 37.4729C39.0126 33.624 35.8699 30.4922 32.0067 30.4922ZM32.0067 41.6411C29.6998 41.6411 27.823 39.7712 27.823 37.4729C27.823 35.1746 29.6998 33.3047 32.0067 33.3047C34.3128 33.3047 36.1897 35.1746 36.1897 37.4729C36.1897 39.7712 34.3136 41.6411 32.0067 41.6411Z" fill="white"/>
<path d="M50.7587 18.5842C50.7587 14.7354 47.6152 11.6035 43.752 11.6035C39.8888 11.6035 36.7461 14.7354 36.7461 18.5842C36.7461 22.4331 39.8888 25.5649 43.752 25.5649C47.6152 25.5649 50.7587 22.4331 50.7587 18.5842ZM39.5683 18.5842C39.5683 16.2859 41.4452 14.416 43.752 14.416C46.0589 14.416 47.9358 16.2859 47.9358 18.5842C47.9358 20.8826 46.0589 22.7524 43.752 22.7524C41.4452 22.7524 39.5683 20.8826 39.5683 18.5842Z" fill="white"/>
<path d="M75.3361 25.4841C75.3361 23.1719 73.4483 21.291 71.1274 21.291C68.8066 21.291 66.918 23.1719 66.918 25.4841C66.918 27.7964 68.8066 29.6772 71.1274 29.6772C73.4483 29.6772 75.3361 27.7964 75.3361 25.4841ZM69.7409 25.4841C69.7409 24.7224 70.3629 24.1035 71.1274 24.1035C71.892 24.1035 72.5132 24.7224 72.5132 25.4841C72.5132 26.2458 71.892 26.8647 71.1274 26.8647C70.3629 26.8647 69.7409 26.2458 69.7409 25.4841Z" fill="white"/>
<path d="M62.1228 35.7656C59.8019 35.7656 57.9141 37.6465 57.9141 39.9587C57.9141 42.271 59.8019 44.1526 62.1228 44.1526C64.4436 44.1526 66.3322 42.271 66.3322 39.9587C66.3322 37.6465 64.4436 35.7656 62.1228 35.7656ZM62.1228 41.3401C61.359 41.3401 60.737 40.7205 60.737 39.9587C60.737 39.1978 61.359 38.5781 62.1228 38.5781C62.8873 38.5781 63.5093 39.1978 63.5093 39.9587C63.5093 40.7205 62.8873 41.3401 62.1228 41.3401Z" fill="white"/>
<path d="M58.8415 21.3167C61.1624 21.3167 63.0502 19.4358 63.0502 17.1235C63.0502 14.8113 61.1624 12.9297 58.8415 12.9297C56.5207 12.9297 54.6328 14.8113 54.6328 17.1235C54.6328 19.4358 56.5207 21.3167 58.8415 21.3167ZM58.8415 15.7422C59.6053 15.7422 60.2273 16.3618 60.2273 17.1235C60.2273 17.8853 59.6053 18.5042 58.8415 18.5042C58.077 18.5042 57.4558 17.8845 57.4558 17.1235C57.4558 16.3618 58.077 15.7422 58.8415 15.7422Z" fill="white"/>
<path d="M44.8359 32.5427C44.8359 34.855 46.7245 36.7366 49.0454 36.7366C51.3662 36.7366 53.2541 34.855 53.2541 32.5427C53.2541 30.2305 51.3662 28.3496 49.0454 28.3496C46.7238 28.3496 44.8359 30.2305 44.8359 32.5427ZM50.4311 32.5427C50.4311 33.3044 49.8092 33.9241 49.0447 33.9241C48.2808 33.9241 47.6589 33.3044 47.6589 32.5427C47.6589 31.7817 48.2808 31.1621 49.0447 31.1621C49.8092 31.1621 50.4311 31.7817 50.4311 32.5427Z" fill="white"/>
<path d="M17.697 36.8906C15.3761 36.8906 13.4883 38.7715 13.4883 41.0837C13.4883 43.396 15.3761 45.2776 17.697 45.2776C20.0179 45.2776 21.9057 43.396 21.9057 41.0837C21.9057 38.7715 20.0179 36.8906 17.697 36.8906ZM17.697 42.4651C16.9324 42.4651 16.3112 41.8455 16.3112 41.0837C16.3112 40.3228 16.9324 39.7031 17.697 39.7031C18.4608 39.7031 19.0828 40.3228 19.0828 41.0837C19.0828 41.8455 18.4608 42.4651 17.697 42.4651Z" fill="white"/>
<path d="M33.7602 58.4983C36.0811 58.4983 37.969 56.6174 37.969 54.3052C37.969 51.9929 36.0804 50.1113 33.7602 50.1113C31.4394 50.1113 29.5508 51.9929 29.5508 54.3052C29.5508 56.6174 31.4394 58.4983 33.7602 58.4983ZM33.7602 52.9238C34.5241 52.9238 35.146 53.5435 35.146 54.3052C35.146 55.0662 34.5241 55.6858 33.7602 55.6858C32.9957 55.6858 32.3737 55.0662 32.3737 54.3052C32.3737 53.5435 32.9957 52.9238 33.7602 52.9238Z" fill="white"/>
<path d="M27.3955 28.354C27.7917 28.354 28.1909 28.2976 28.582 28.1833C30.8095 27.5344 32.0923 25.2016 31.441 22.9817C31.1256 21.9072 30.4088 21.018 29.423 20.4804C28.4364 19.9421 27.2992 19.8191 26.22 20.1333C23.9925 20.7822 22.7096 23.115 23.361 25.3342C23.6763 26.4094 24.3931 27.2986 25.379 27.8361C26.0075 28.1789 26.6978 28.354 27.3955 28.354ZM27.0124 22.833C27.1411 22.7956 27.2727 22.7766 27.4028 22.7766C27.6329 22.7766 27.8601 22.8344 28.0667 22.9472C28.3916 23.1245 28.6276 23.4167 28.7312 23.7712C28.9459 24.5022 28.5232 25.2705 27.7902 25.4836C27.4344 25.5869 27.0602 25.5466 26.7353 25.3694C26.4111 25.1921 26.1751 24.8999 26.0707 24.5454C25.8561 23.8152 26.2788 23.0468 27.0124 22.833Z" fill="white"/>
<path d="M22.9143 56.3611C22.9143 54.0488 21.0257 52.168 18.7048 52.168C16.384 52.168 14.4961 54.0488 14.4961 56.3611C14.4961 58.6733 16.384 60.5549 18.7048 60.5549C21.0257 60.5542 22.9143 58.6733 22.9143 56.3611ZM18.7048 57.7417C17.941 57.7417 17.3191 57.1221 17.3191 56.3611C17.3191 55.5994 17.941 54.9797 18.7048 54.9797C19.4694 54.9797 20.0913 55.5994 20.0913 56.3611C20.0913 57.1221 19.4694 57.7417 18.7048 57.7417Z" fill="white"/>
<path d="M58.1032 82.0034C60.4241 82.0034 62.312 80.1226 62.312 77.8103C62.312 75.498 60.4241 73.6172 58.1032 73.6172C55.7824 73.6172 53.8945 75.498 53.8945 77.8103C53.8945 80.1226 55.7824 82.0034 58.1032 82.0034ZM58.1032 76.4297C58.8678 76.4297 59.489 77.0493 59.489 77.8103C59.489 78.572 58.8678 79.1909 58.1032 79.1909C57.3394 79.1909 56.7175 78.572 56.7175 77.8103C56.7175 77.0493 57.3394 76.4297 58.1032 76.4297Z" fill="white"/>
<path d="M49.0447 66.1284C51.3655 66.1284 53.2541 64.2476 53.2541 61.9353C53.2541 59.623 51.3655 57.7422 49.0447 57.7422C46.7238 57.7422 44.8359 59.623 44.8359 61.9353C44.8359 64.2476 46.7238 66.1284 49.0447 66.1284ZM49.0447 60.554C49.8092 60.554 50.4311 61.1736 50.4311 61.9353C50.4311 62.6963 49.8092 63.3159 49.0447 63.3159C48.2808 63.3159 47.6589 62.6963 47.6589 61.9353C47.6589 61.1736 48.2808 60.554 49.0447 60.554Z" fill="white"/>
<path d="M75.881 30.8672C72.0178 30.8672 68.875 33.999 68.875 37.8479C68.875 41.6968 72.0178 44.8286 75.881 44.8286C79.7442 44.8286 82.8876 41.6968 82.8876 37.8479C82.8876 33.999 79.7442 30.8672 75.881 30.8672ZM75.881 42.0161C73.5741 42.0161 71.698 40.1462 71.698 37.8479C71.698 35.5496 73.5741 33.6797 75.881 33.6797C78.1878 33.6797 80.0647 35.5496 80.0647 37.8479C80.0647 40.1462 78.1878 42.0161 75.881 42.0161Z" fill="white"/>
<path d="M97.1252 44.9319C96.1746 29.9348 88.2041 16.3242 75.7493 8.04492C74.8142 7.42383 73.6549 7.2041 72.5529 7.43408C72.2044 6.36914 71.4376 5.47632 70.432 4.97974C63.7502 1.67505 56.5539 0 49.0429 0C41.5326 0 34.3362 1.67505 27.6537 4.97974C26.6488 5.47705 25.882 6.36914 25.5336 7.43408C24.4316 7.2041 23.2715 7.42383 22.3364 8.04492C9.89332 16.3169 1.91257 29.9224 0.961287 44.9319C0.890713 46.0518 1.28108 47.1636 2.0324 48C1.28034 48.8364 0.890713 49.9482 0.961287 51.0681C1.91183 66.0652 9.8823 79.6758 22.3372 87.9551C23.2385 88.5542 24.3868 88.8054 25.5336 88.5659C25.882 89.6309 26.6488 90.5237 27.6545 91.021C34.3362 94.325 41.5326 96 49.0429 96C56.5539 96 63.7502 94.325 70.432 91.0203C72.6102 89.9436 73.413 87.2402 72.1971 85.1418L51.488 49.4062H66.6393V57.3867C66.6393 59.9744 68.6867 62.2676 71.6281 62.2676C74.3981 62.2676 76.652 60.03 76.652 57.2798V55.99C76.652 55.5352 77.0233 55.1653 77.4798 55.1653C77.9363 55.1653 78.3076 55.5352 78.3076 55.99V66.0132C78.3076 68.2954 80.1712 70.1514 82.4619 70.1514C84.7519 70.1514 86.6155 68.2954 86.6155 66.0132V49.4062H92.8966C95.3358 49.4062 97.2781 47.3525 97.1252 44.9319ZM24.3912 77.272C22.8179 75.9551 21.7557 73.8772 20.2391 72.0784C18.7246 70.2825 16.8559 68.885 15.823 67.1067C14.8012 65.3481 14.5123 63.0352 13.7014 60.8152C12.9015 58.6267 11.6268 56.6821 11.2681 54.6379C10.9894 53.0552 11.2688 51.2908 11.3923 49.4062H46.5985L28.9917 79.7878C27.2979 78.9558 25.6402 78.3171 24.3912 77.272ZM11.2681 41.3621C11.6268 39.3179 12.9015 37.3733 13.7014 35.1848C14.513 32.9626 14.8012 30.6526 15.823 28.8933C16.8552 27.115 18.7254 25.7168 20.2391 23.9216C21.7571 22.1199 22.8172 20.0457 24.3912 18.728C25.6402 17.6829 27.2987 17.0435 28.9924 16.2114L36.4196 29.0288C36.8093 29.7012 37.6731 29.9319 38.3479 29.5437C39.0228 29.1555 39.2544 28.2949 38.8647 27.6226L31.4353 14.8022C32.9953 13.7578 34.3737 12.646 35.9227 12.0842C37.8289 11.3928 40.1645 11.5122 42.5103 11.1035C44.804 10.7029 46.9447 9.79028 49.0429 9.79028C51.1417 9.79028 53.2825 10.7029 55.5761 11.1035C57.922 11.5122 60.2583 11.3928 62.1638 12.0842C63.712 12.646 65.0897 13.7571 66.6511 14.8022L49.0429 45.1875L42.1582 33.3062C41.7678 32.6338 40.9048 32.4031 40.2299 32.7913C39.555 33.1802 39.3235 34.04 39.7131 34.7124L46.5985 46.5938H11.393C11.2688 44.7092 10.9894 42.9448 11.2681 41.3621ZM28.9094 7.49854C35.1978 4.3894 41.9722 2.8125 49.0429 2.8125C56.1142 2.8125 62.8886 4.3894 69.1771 7.49854C69.8946 7.85303 70.1585 8.75098 69.752 9.4519L68.0663 12.3604C66.5122 11.3064 65.0051 10.1221 63.129 9.44165C60.778 8.58911 58.28 8.72021 56.0628 8.33276C53.9132 7.9585 51.6129 6.97778 49.0429 6.97778C46.4735 6.97778 44.1725 7.9585 42.0237 8.33276C39.8072 8.72021 37.3084 8.58838 34.9567 9.44165C33.0813 10.1221 31.578 11.3035 30.0202 12.3604C30.0077 12.3391 28.3352 9.45337 28.3352 9.45337L28.3345 9.4519C27.9287 8.75171 28.1911 7.85376 28.9094 7.49854ZM3.77911 45.1084C4.66275 31.1543 12.1862 18.1736 23.9038 10.3843C24.5705 9.94116 25.4851 10.1594 25.8923 10.8625L27.5773 13.7703C25.8806 14.5913 24.0942 15.304 22.5753 16.5747C20.6397 18.1948 19.5068 20.4177 18.077 22.1133C16.6515 23.8037 14.649 25.2986 13.3794 27.4849C12.1208 29.6521 11.815 32.1248 11.049 34.2224C10.2969 36.2805 8.92808 38.3679 8.48699 40.8772C8.14809 42.8057 8.42744 44.7078 8.56271 46.5938H5.18912C4.37458 46.5938 3.72765 45.9126 3.77911 45.1084ZM23.9038 85.615C12.1862 77.8264 4.66275 64.8457 3.77911 50.8909C3.72765 50.0874 4.37458 49.4062 5.18985 49.4062H8.56271C8.42744 51.2952 8.14809 53.1943 8.48699 55.1228C8.92808 57.6321 10.2969 59.7202 11.049 61.7776C11.815 63.8745 12.1216 66.3479 13.3794 68.5151C14.649 70.7007 16.6523 72.1963 18.0777 73.8875C19.5076 75.583 20.6404 77.8059 22.5761 79.4253C24.0934 80.696 25.8791 81.408 27.5773 82.2297L25.8923 85.1367C25.4873 85.8369 24.5742 86.061 23.9038 85.615ZM69.1771 88.5015C62.8886 91.6106 56.1142 93.1875 49.0429 93.1875C41.9715 93.1875 35.1978 91.6106 28.9094 88.5015C28.1919 88.1462 27.928 87.249 28.3345 86.5481L30.0202 83.6396C31.575 84.6943 33.0813 85.8779 34.9567 86.5583C35.6882 86.8242 36.499 86.4485 36.7659 85.7175C37.0328 84.988 36.6549 84.1809 35.9227 83.9158C34.3745 83.354 32.9961 82.2429 31.4353 81.197L49.0429 50.8125L66.6511 81.197C65.0897 82.2429 63.712 83.354 62.1638 83.9158C60.2575 84.6072 57.922 84.4871 55.5761 84.8965C53.2825 85.2964 51.1417 86.2097 49.0429 86.2097C46.8051 86.2097 44.6077 85.1909 41.9759 84.8115C41.204 84.7009 40.4887 85.2341 40.3769 86.0024C40.2659 86.7715 40.8011 87.4849 41.5723 87.5955C44.0049 87.9456 46.3243 89.0222 49.0429 89.0222C51.6129 89.0222 53.9125 88.0422 56.0628 87.6672C58.2785 87.2805 60.7773 87.4116 63.1297 86.5583C65.0044 85.8787 66.5092 84.6965 68.0663 83.6396L69.752 86.5481C70.1578 87.2483 69.8953 88.1462 69.1771 88.5015ZM85.204 46.5938C84.4248 46.5938 83.7925 47.2236 83.7925 48V66.0132C83.7925 66.7441 83.1956 67.3389 82.4619 67.3389C81.7282 67.3389 81.1313 66.7441 81.1313 66.0132V55.99C81.1313 53.9839 79.4934 52.3528 77.4798 52.3528C75.467 52.3528 73.8291 53.9839 73.8291 55.99V57.2798C73.8291 58.4011 72.9513 59.4551 71.5384 59.4551C70.3908 59.4551 69.4623 58.53 69.4623 57.3867L69.463 49.4062H80.1366C80.9159 49.4062 81.5481 48.7764 81.5481 48C81.5481 47.2236 80.9159 46.5938 80.1366 46.5938H51.488L69.094 16.2122C70.7856 17.0427 72.4455 17.6821 73.6953 18.728C75.2692 20.0449 76.33 22.1221 77.8474 23.9216C79.3618 25.7175 81.2305 27.1143 82.2634 28.8933C83.2853 30.6519 83.5735 32.9648 84.3851 35.1848C85.1849 37.3733 86.4589 39.3179 86.8184 41.3621C87.097 42.9448 86.8177 44.7092 86.6934 46.5938H85.204ZM92.8966 46.5938H89.5237C89.659 44.7048 89.9384 42.8057 89.5995 40.8772C89.1584 38.3679 87.7895 36.2798 87.0375 34.2224C86.2722 32.1262 85.9649 29.6514 84.7071 27.4849C83.4375 25.2986 81.4334 23.8022 80.0087 22.1125C78.5803 20.4177 77.446 18.1941 75.5111 16.5747C73.993 15.3047 72.2088 14.5928 70.5092 13.7703L72.1941 10.8625C72.6014 10.1594 73.5166 9.94116 74.1827 10.3843C85.9002 18.1736 93.4237 31.1543 94.3073 45.1084C94.3588 45.9141 93.7104 46.5938 92.8966 46.5938Z" fill="white"/>
</g>
<defs>
<clipPath id="clip0">
<rect width="96.3572" height="96" fill="white" transform="translate(0.765625)"/>
</clipPath>
</defs>
</svg>
