<svg width="41" height="64" viewBox="0 0 41 64" fill="none" xmlns="http://www.w3.org/2000/svg">
<path d="M7.80412 45.1592L5.54176 41.0944L3.49525 41.1068L3.49531 45.1852L1.69939 45.196L1.69922 33.995L5.98019 33.9692C6.43415 33.9555 6.8853 34.0411 7.3048 34.2204C7.72431 34.3997 8.10295 34.6688 8.41653 35.0105C8.7434 35.3363 9.00184 35.7298 9.17556 36.1662C9.34928 36.6026 9.43452 37.0724 9.4259 37.5461C9.42118 38.2481 9.21582 38.9338 8.83623 39.5149C8.45665 40.0961 7.9202 40.5461 7.29591 40.8071L9.7323 45.1621L7.80412 45.1592ZM3.49516 35.7102L3.49522 39.4536L5.98027 39.4386C6.45473 39.4357 6.90976 39.2358 7.24525 38.8828C7.58074 38.5297 7.76921 38.0525 7.7692 37.5561C7.76919 37.0597 7.58071 36.5848 7.24521 36.2358C6.90971 35.8868 6.45468 35.6924 5.98021 35.6952L3.49516 35.7102Z" fill="white"/>
<path d="M16.027 45.3889C14.5498 45.3978 13.1331 44.7931 12.0885 43.708C11.0439 42.6229 10.4571 41.1462 10.4571 39.6028C10.4571 38.0593 11.0439 36.5756 12.0884 35.4779C13.133 34.3803 14.5497 33.7587 16.0269 33.7498C17.1257 33.7466 18.199 34.083 19.1117 34.7168C20.0244 35.3506 20.7358 36.2533 21.1563 37.3115C21.5768 38.3696 21.6877 39.5359 21.4749 40.6635C21.2622 41.7911 20.7353 42.8297 19.9607 43.6485C19.4522 44.2036 18.8408 44.6445 18.1642 44.9438C17.4876 45.2431 16.7602 45.3946 16.027 45.3889ZM16.027 43.5994C16.5241 43.6089 17.0185 43.5131 17.4804 43.3178C17.9423 43.1225 18.3621 42.8317 18.7144 42.463C19.0784 42.0801 19.3639 41.6238 19.5531 41.1222C19.7423 40.6206 19.8312 40.0843 19.8144 39.5466C19.8295 39.0165 19.7395 38.4895 19.5502 37.9987C19.3609 37.5079 19.0763 37.0638 18.7144 36.6944C18.3672 36.3201 17.9491 36.0256 17.4866 35.8293C17.024 35.633 16.527 35.5392 16.0269 35.5539C15.5241 35.5439 15.0242 35.6422 14.5582 35.8428C14.0923 36.0433 13.6703 36.3417 13.3186 36.7195C12.959 37.0963 12.6766 37.5455 12.4886 38.0395C12.3006 38.5335 12.2111 39.0619 12.2255 39.5922C12.2094 40.1287 12.2973 40.6625 12.4839 41.1615C12.6706 41.6604 12.9522 42.1142 13.3117 42.4954C13.6707 42.8571 14.0961 43.1393 14.5626 43.3252C15.029 43.5111 15.527 43.5969 16.027 43.5776L16.027 43.5994Z" fill="white"/>
<path d="M22.2227 42.6395L23.7332 41.698C23.9032 42.2844 24.2607 42.7908 24.746 43.1327C25.2312 43.4745 25.8147 43.631 26.3992 43.5762C27.7287 43.5682 28.383 42.967 28.383 42.1074C28.3975 41.8996 28.3579 41.6919 28.2685 41.5064C28.179 41.3209 28.0429 41.1646 27.8748 41.0541C27.2694 40.7138 26.6235 40.458 25.9537 40.2934C25.15 40.0827 24.3873 39.7301 23.6984 39.2506C23.3558 39 23.0807 38.6615 22.8992 38.2674C22.7176 37.8732 22.6357 37.4364 22.6612 36.9985C22.6457 36.5488 22.7314 36.1009 22.9116 35.6911C23.0918 35.2813 23.3613 34.921 23.6984 34.6394C24.3723 34.0445 25.2278 33.7237 26.1068 33.7362C26.8919 33.7086 27.6658 33.9258 28.3301 34.3603C28.9945 34.7947 29.5192 35.4268 29.8378 36.1762L28.3551 37.0811C28.1856 36.6066 27.8769 36.2011 27.4733 35.9223C27.0696 35.6435 26.5914 35.5056 26.1068 35.5283C25.0836 35.5344 24.4223 36.0774 24.4223 36.9297C24.4223 37.782 24.9443 38.1432 26.5801 38.6579C26.9908 38.8011 27.2762 38.8941 27.4711 38.9731C27.666 39.0521 27.9236 39.1452 28.2647 39.2889C28.5446 39.3961 28.8074 39.5468 29.0443 39.7359C29.3974 39.9901 29.6832 40.3336 29.8754 40.7348C30.0676 41.1359 30.16 41.5817 30.1441 42.0313C30.1638 42.4933 30.0781 42.9541 29.8941 43.3758C29.7102 43.7974 29.4332 44.1678 29.086 44.4561C28.3066 45.0957 27.3373 45.4266 26.3504 45.3903C24.2831 45.4027 22.7865 44.348 22.2227 42.6395Z" fill="white"/>
<path d="M37.9422 33.944L39.7172 33.9332L39.7174 45.1335L37.9424 45.1443L37.9423 40.2796L33.355 40.3074L33.3551 45.1575L31.594 45.1681L31.5938 33.9824L33.3549 33.9718L33.355 38.5669L37.9423 38.5391L37.9422 33.944Z" fill="white"/>
<path d="M18.1478 5.07709C18.1478 5.07709 19.6286 -2.04399 25.8959 2.14875C25.8959 2.14875 29.4265 4.46421 27.5836 11.3589C27.5836 11.3589 24.9271 15.5418 26.883 18.5161C27.6633 18.0871 28.2721 17.3797 28.5996 16.5216C28.927 15.6635 28.9516 14.7112 28.6689 13.8365C28.6689 13.8365 31.0929 14.3761 31.5423 20.5604C32.3735 20.25 33.118 19.7269 33.7084 19.0385C34.2987 18.3502 34.7162 17.5183 34.9231 16.6183C35.4469 15.0704 36.3954 13.7192 37.649 12.7351C36.9921 14.8337 36.7979 17.061 37.0811 19.2489C37.7754 23.4958 34.7287 27.9714 34.7287 27.9714C34.7287 27.9714 35.8638 28.6579 37.3696 26.6468C37.9482 25.9154 39.6069 24.7156 40.1572 24.7153C39.6753 26.3068 39.2997 27.9314 39.0329 29.5773C38.7317 32.6478 35.8409 32.3058 34.4894 32.3431C34.3557 32.3432 34.2275 32.288 34.1323 32.1896C34.0372 32.0911 33.9829 31.9573 33.9812 31.817L33.9812 31.7512L34.0582 31.0933C33.3377 31.1131 32.6358 30.8532 32.0872 30.3633C31.7326 29.15 32.2908 27.4391 33.0581 25.5599C32.3031 26.335 31.3209 26.8199 30.2709 26.9357C30.1865 26.9448 30.1012 26.936 30.0201 26.9099C29.939 26.8837 29.8638 26.8408 29.7989 26.7836C29.734 26.7263 29.6806 26.656 29.6421 26.5767C29.6036 26.4974 29.5806 26.4108 29.5746 26.322C29.5712 26.3003 29.5712 26.278 29.5746 26.2563C29.5755 24.5895 29.4509 23.1787 28.9359 22.3456C28.8656 22.2392 28.7579 22.1665 28.6365 22.1432C28.5151 22.12 28.3898 22.1482 28.2881 22.2216L28.2393 22.2582C27.7577 22.8157 27.4594 23.5206 27.3883 24.269C27.3883 24.269 23.3132 24.0739 22.4067 13.0577C19.1134 15.7438 16.8549 19.5875 16.0475 23.8804C16.0412 23.9259 16.0223 23.9685 15.9932 24.0028C15.964 24.0371 15.9258 24.0617 15.8835 24.0734C15.8411 24.0851 15.7964 24.0835 15.755 24.0687C15.7135 24.0539 15.6771 24.0267 15.6504 23.9903C14.8568 22.9234 14.0563 21.7981 13.2902 21.5353C13.2563 21.5266 13.2212 21.525 13.1867 21.5306C13.1523 21.5362 13.1192 21.5489 13.0894 21.5679C13.0596 21.5869 13.0337 21.612 13.0132 21.6415C12.9926 21.6711 12.9778 21.7046 12.9696 21.7402C12.9662 21.7693 12.9662 21.7988 12.9696 21.8279C12.9769 24.1329 12.6274 26.4242 11.9348 28.6124C11.9007 28.7374 11.8249 28.8453 11.7212 28.9165C11.6176 28.9877 11.493 29.0174 11.3703 29.0002C10.3578 28.8682 9.37895 28.5338 8.48684 28.0149C8.43093 27.9756 8.36787 27.949 8.30164 27.9366C8.2354 27.9242 8.16743 27.9263 8.10198 27.9428C8.03654 27.9594 7.97505 27.9899 7.92138 28.0326C7.86771 28.0752 7.82301 28.1291 7.79012 28.1907C7.74073 28.2688 7.71405 28.3602 7.71334 28.4539C7.67755 29.552 7.84491 30.6467 8.20616 31.6775C8.26037 31.8125 8.26227 31.9643 8.21147 32.1009C8.16066 32.2374 8.06115 32.3478 7.93407 32.4087C7.85825 32.4473 7.77432 32.4649 7.69022 32.46L4.68777 32.4616C4.57217 32.4627 4.45851 32.4307 4.35908 32.3689C4.25966 32.3071 4.17827 32.2179 4.1237 32.111C3.67142 31.1682 2.73253 28.3762 4.69921 24.3983C7.18194 19.4405 1.91659 17.4184 1.91659 17.4184C1.91659 17.4184 8.18697 16.0261 8.97041 22.7877C8.97041 22.7877 10.0998 21.325 8.06194 15.3755C6.02413 9.42601 9.09019 7.77952 9.09019 7.77952C9.09019 7.77952 8.07073 12.0932 10.5568 13.627C11.8979 14.3855 13.1001 15.3872 14.108 16.5858C14.5663 14.9678 15.3986 13.4934 16.5308 12.2939C17.663 11.0944 19.06 10.2069 20.5973 9.71051C25.9345 7.93852 22.2462 1.08342 18.1478 5.07709Z" fill="#FF0000"/>
<path d="M20.8093 21.926C20.8093 21.926 17.4575 23.7992 17.6213 29.9691C17.6278 30.0463 17.6102 30.1237 17.5712 30.1896C17.5323 30.2556 17.474 30.3065 17.4051 30.3347C16.9104 30.5323 15.6633 30.7377 14.3339 28.6038C14.3339 28.6038 13.5115 29.4523 14.1995 32.3468L29.1212 32.4483C29.4444 31.802 29.6134 31.0832 29.6138 30.3537C29.6142 29.6241 29.446 28.9055 29.1235 28.2595C29.1579 28.8805 28.9658 29.4922 28.5861 29.9704C28.5592 30.012 28.5178 30.0408 28.4708 30.0504C28.4238 30.06 28.3751 30.0497 28.3353 30.0217C28.3157 30.0086 28.2991 29.9912 28.2866 29.9706C27.8968 29.3275 26.6091 27.4567 24.603 27.2385C24.1551 27.1849 23.7293 27.0058 23.3702 26.7202C21.973 25.5168 21.0588 23.8054 20.8093 21.926Z" fill="#FF0000"/>
<path d="M40.9958 18.3639C40.9958 18.3639 41.0782 20.5569 40.2137 21.6759C39.5915 22.3396 39.1154 23.1384 38.8192 24.0159C38.5964 23.5862 38.4701 23.1086 38.4498 22.6196C38.4296 22.1306 38.5159 21.6431 38.7023 21.1942C39.3439 19.9292 40.3404 19.395 40.9958 18.3639Z" fill="#FF0000"/>
<path d="M32.6225 8.4919C32.6225 8.4919 31.7645 10.6197 32.2235 12.0596C32.6082 12.9519 32.7981 13.9233 32.7792 14.903C33.1512 14.5662 33.4452 14.1447 33.6386 13.6708C33.8321 13.1969 33.9198 12.683 33.8953 12.1683C33.6802 10.7064 32.8865 9.80031 32.6225 8.4919Z" fill="#FF0000"/>
<path d="M13.0675 6.15601C13.0675 6.15601 12.3 8.19601 12.766 9.55548C13.1472 10.3955 13.3442 11.3146 13.3427 12.2454C13.6924 11.916 13.9649 11.5064 14.1392 11.0486C14.3134 10.5907 14.3846 10.097 14.3473 9.6058C14.1182 8.23889 13.3454 7.41324 13.0675 6.15601Z" fill="#FF0000"/>
<path d="M0.0339556 19.5449C0.0339556 19.5449 -0.218145 21.9209 0.728584 23.1266C1.42505 23.8153 1.9445 24.6774 2.23885 25.6332C2.23885 25.6332 3.31256 23.9659 2.58189 22.5773C1.85121 21.1887 0.799597 20.6922 0.0339556 19.5449Z" fill="#FF0000"/>
<path d="M1.10685 46.7892C1.06876 46.7873 1.03069 46.7934 0.994862 46.8071C0.959038 46.8209 0.926191 46.842 0.898258 46.8693C0.870324 46.8965 0.847871 46.9294 0.832221 46.9659C0.816571 47.0024 0.808041 47.0418 0.807135 47.0818C0.803582 47.106 0.803569 47.1307 0.807094 47.1549C1.83646 51.791 4.33279 55.9224 7.88891 58.8755C11.445 61.8285 15.8511 63.4288 20.3883 63.4153C24.9256 63.4018 29.3263 61.7753 32.8726 58.8012C36.4189 55.8271 38.9016 51.6808 39.9156 47.0387C39.9239 47.0012 39.9251 46.9625 39.9191 46.9246C39.913 46.8867 39.9 46.8504 39.8806 46.8178C39.8612 46.7852 39.8359 46.757 39.806 46.7347C39.7762 46.7124 39.7425 46.6965 39.7068 46.6879L39.6232 46.6879L1.10685 46.7892ZM5.59059 51.3265C5.22152 51.0562 5.24936 51.1147 5.08241 50.6762C4.52537 50.2086 4.776 50.4936 4.18404 50.1796L4.19797 50.1796C4.19822 49.7336 3.79443 49.2879 3.50203 48.9518L3.86435 48.8127C3.91997 49.0174 3.94125 48.3375 3.94823 48.3082C4.23425 47.5771 4.01126 47.7015 4.97262 47.6717C5.12579 47.8251 5.10501 47.6204 5.34158 48.1247C5.39615 48.2142 5.42512 48.3182 5.42506 48.4244C5.425 48.5307 5.39591 48.6347 5.34125 48.7242C5.15271 49.5357 4.92214 50.7567 6.60149 49.8858L6.7347 48.3579L6.7838 47.7438L8.44864 47.9037C8.38747 48.1323 8.27234 48.3411 8.11393 48.5107C7.53272 49.221 7.12568 50.0695 6.92829 50.9822C7.01644 51.5801 7.15124 52.1692 7.33136 52.7438L5.77101 52.5911L5.59059 51.3265ZM10.373 57.3623C9.67645 57.3042 10.4706 57.3622 9.98999 57.1943C9.9064 57.1944 9.43307 56.5148 9.33521 57.1216C8.95213 56.9975 9.12625 57.0632 8.91054 56.6247C8.61101 56.3217 8.42156 55.9186 8.37477 55.4846C8.11748 54.6587 8.49325 55.3895 7.77612 54.6881C6.58554 53.5191 7.1981 54.3668 5.82607 53.7973C5.8265 53.0078 6.16051 53.6875 6.99643 53.7309L8.19428 54.3589C9.11921 57.1948 9.6839 56.4342 10.9025 57.2377C10.7074 57.3182 10.8119 57.3986 10.4009 57.3623L10.373 57.3623ZM22.5632 58.6569C21.9572 58.7084 21.3303 58.5918 21.0374 59.1695C20.598 60.025 21.6639 59.9806 20.4028 60.376C20.5632 59.9885 20.842 59.6447 20.5287 59.3525C21.2257 58.6211 21.2957 58.1239 22.4381 58.2403L23.0092 58.4593C22.7931 58.7518 23.42 58.7807 22.5911 58.6569L22.5632 58.6569ZM32.633 52.3207L31.783 52.5551C31.0371 53.462 32.1304 54.1047 32.0603 54.9235C31.9921 55.1737 31.9058 55.4182 31.8021 55.6547C31.1046 57.4022 27.9692 58.4054 27.9692 58.4054C26.5755 59.1372 25.2937 59.2256 24.2007 58.0127C23.7307 57.7396 23.1985 57.6059 22.6613 57.6261C20.7875 57.4517 21.031 58.1168 19.8254 58.7973L17.8815 59.3539C18.0694 59.8509 18.5779 59.8799 19.0237 59.9308C18.8006 60.2014 19.0236 60.0186 18.7031 60.2307C17.8668 60.8233 18.0066 60.0264 16.286 59.7934C15.902 59.7473 15.544 59.5673 15.2692 59.2822L14.9421 58.7341L14.9074 58.471C14.777 58.4574 14.6498 58.4204 14.5313 58.3615L13.3891 57.8577L12.7763 57.4926C12.3029 56.9884 12.498 56.9737 11.8713 56.4988C10.8128 55.6953 9.85829 56.0028 9.378 55.3305C8.48005 54.081 9.32992 54.0878 9.32992 54.0878C9.92182 54.5115 11.2666 53.8967 11.6708 53.6552C12.0848 53.4527 12.4171 53.1028 12.6086 52.6677C12.8002 52.2326 12.8386 51.7405 12.7171 51.2788C13.477 50.2549 12.1543 48.567 11.667 48.0701C12.2175 47.7555 12.5447 48.0697 12.7883 48.4424C12.8371 48.4423 12.9067 48.4423 12.9345 48.5519C12.9623 48.6616 13.1643 48.7199 13.1992 48.7492L13.4986 48.9829C13.721 49.9185 14.3959 51.4241 15.0369 51.2264C15.3222 51.7745 14.8696 51.4458 15.6217 51.7524L16.7642 51.8176C16.7642 51.8176 16.8061 51.6421 16.813 51.6713L16.8828 51.4008L16.883 51.0938C16.876 51.07 16.876 51.0445 16.883 51.0207L17.5795 51.342C18.5694 50.1133 18.3529 51.093 18.7087 50.0255C18.7087 50.0255 18.7923 50.0254 18.9318 49.828C18.9876 49.7194 19.0365 49.607 19.0782 49.4916C19.2878 48.4096 18.285 47.9057 19.8317 47.5467C19.8642 48.2054 20.1326 48.8266 20.5831 49.2861C20.7662 49.4586 20.9644 49.6127 21.1749 49.7464C22.1847 50.4184 24.8381 51.7109 24.8381 51.7109C24.6892 51.9087 24.5823 52.1376 24.5245 52.3822C24.4667 52.6268 24.4593 52.8815 24.5029 53.1292C24.6465 54.1825 25.0547 55.1765 25.6856 56.0089C25.9989 56.3157 30.1221 57.8706 30.4866 53.7693C30.5581 53.2287 30.4502 52.6789 30.1809 52.2124C29.861 51.2988 30.1816 51.0135 29.311 50.7069C28.7352 50.3504 28.0699 50.1852 27.4025 50.2328C25.8978 50.2336 26.3713 50.6281 25.4376 50.9649C25.1463 50.5951 24.9887 50.1293 24.9925 49.6493L24.4492 49.5472C24.5391 49.432 24.6421 49.3289 24.7559 49.24L25.7944 48.2233C26.0733 47.8649 26.2614 47.704 27.188 47.667C27.5572 47.6668 27.3274 47.5499 27.6338 47.7252C27.7172 48.0834 26.2397 49.188 27.6328 49.392C27.9463 49.4357 27.8 49.4796 28.1971 49.3332C28.8382 49.1062 28.8034 48.9235 28.9709 48.4774C29.2638 47.8925 29.0614 48.4774 29.0826 47.9145L30.7683 48.1694L30.6703 49.0175C30.4608 50.0264 31.0736 50.3624 31.2681 51.3711C31.7905 51.5536 31.4771 51.4441 31.7974 51.6778C32.1177 51.9116 31.6719 51.7949 32.3406 52.0065C33.0092 52.2182 33.3228 52.0718 33.8173 52.2762C33.1832 52.5178 33.4549 52.4299 32.6608 52.3207L32.633 52.3207ZM35.2244 52.3193C35.182 52.2979 35.1356 52.2869 35.0886 52.2869C35.0416 52.2869 34.9951 52.298 34.9527 52.3194C34.9306 52.2082 34.8956 52.1001 34.8484 51.9978C35.4128 51.8075 35.6637 51.6538 35.8521 51.0616C36.312 50.4762 36.6197 49.7758 36.7449 49.0288L36.7454 48.1077C37.686 47.8367 37.4421 47.9026 37.8257 47.2226C38.4796 48.8817 35.8229 53.5032 35.2244 52.2901L35.2244 52.3193Z" fill="#FF0000"/>
<path d="M25.5648 49.2323C25.2022 49.7086 25.1813 49.7891 25.5642 50.2357C25.864 49.9133 26.115 49.5323 25.5648 49.2323Z" fill="#FF0000"/>
<path d="M11.0438 54.5824L10.988 54.8317C11.2805 55.0369 10.4862 55.1474 11.6846 54.9854L11.3923 54.3255C10.8002 54.2598 11.2391 54.2009 11.0438 54.5824Z" fill="#FF0000"/>
<path d="M30.1172 49.1232C29.4206 49.0062 29.3088 49.5563 29.8869 49.974C30.2005 49.7832 30.0609 50.2233 30.2214 49.6878C30.382 49.1524 30.159 49.2111 30.1172 49.1232Z" fill="#FF0000"/>
<path d="M20.4642 50.2669C20.6876 49.4828 20.2278 49.5344 20.0467 49.4685C19.5936 49.7398 19.8169 49.1902 19.6632 49.9156C19.5445 50.4579 19.663 50.2234 19.7394 50.6483C20.1087 50.6188 20.3107 50.7872 20.4642 50.2669Z" fill="#FF0000"/>
<path d="M14.3387 52.7922L13.7529 53.9848C13.7529 53.9848 13.4673 53.9337 13.1605 54.4898C12.8537 55.0458 12.9583 54.8629 13.16 55.3455C13.8565 55.528 14.0237 55.4767 14.3654 54.928C14.9508 54.4376 14.4351 54.8621 14.7977 54.1963C14.9509 53.9966 15.0841 53.7808 15.1951 53.5524C14.9586 52.9967 14.9726 52.9089 14.3387 52.7922Z" fill="#FF0000"/>
<path d="M13.9502 51.7816C14.1664 51.3929 14.2846 51.7814 13.9505 51.1951C13.609 51.4739 13.4905 51.4666 13.9502 51.7816Z" fill="#FF0000"/>
<path d="M16.434 57.6986C15.9323 57.7941 16.3016 57.6987 16.0506 58.0139L16.1268 58.7465L16.8793 58.7461C17.0675 58.5628 17.5762 58.3281 17.0052 57.7936C16.9246 57.7301 16.8304 57.6883 16.7308 57.6717C16.6313 57.6552 16.5294 57.6644 16.434 57.6986Z" fill="#FF0000"/>
<path d="M4.1875 48.5273C4.31264 49.0413 4.05489 48.9239 4.65406 49.0411C4.59163 48.5345 4.68211 48.718 4.1875 48.5273Z" fill="#FF0000"/>
<path d="M24.0441 55.2351C23.938 55.2915 23.8356 55.3552 23.7374 55.4257C23.4655 55.7041 23.4584 55.9605 23.5069 56.4512C24.6356 56.5165 24.5943 55.5058 24.3924 55.3081C24.1834 55.2277 24.6991 55.0369 24.0441 55.2351Z" fill="#FF0000"/>
<path d="M22.3004 53.5526C22.2369 53.4263 22.1623 53.3064 22.0777 53.1945C21.7017 52.8073 21.9524 52.9972 21.5832 52.9097C21.271 52.3637 20.7972 51.9398 20.234 51.7026C19.6708 51.4654 19.049 51.4278 18.4631 51.5955C17.6132 51.596 17.8081 51.9906 16.9859 52.2762C16.8881 52.7441 16.3586 52.8686 16.1841 53.512C15.8955 54.2496 15.8612 55.0694 16.0872 55.83C16.3132 56.5907 16.7852 57.2444 17.4218 57.6783C17.7352 57.8024 18.1183 57.8753 18.6337 58.0431C19.3302 58.1963 19.9362 58.2837 20.257 57.7425C21.2184 57.5373 21.4905 56.8281 22.1458 55.9578L22.2225 55.8627C22.6129 55.3435 22.5224 55.2704 22.3139 54.4006C22.1749 53.772 22.0701 54.3642 22.3004 53.5526Z" fill="#FF0000"/>
</svg>
