<svg width="152" height="115" viewBox="0 0 152 115" fill="none" xmlns="http://www.w3.org/2000/svg">
<path d="M143.092 61.1981C147.866 59.6143 148.611 55.2107 148.634 55.037C148.674 54.7817 148.622 54.5134 148.484 54.2594C148.345 54.0054 148.125 53.7747 147.845 53.5909C147.566 53.4071 147.237 53.2767 146.892 53.213C146.548 53.1492 146.2 53.1545 145.884 53.2282L135.534 55.6384L141.703 47.4921C141.867 47.2748 141.945 47.0193 141.928 46.7524C141.911 46.4855 141.799 46.217 141.605 45.9753C141.411 45.7335 141.141 45.5272 140.824 45.3782C140.507 45.2292 140.155 45.1429 139.804 45.1284C139.528 45.1159 132.972 44.8823 129.688 48.3913C128.186 49.9913 127.632 52.0582 128.026 54.5557C126.49 53.8448 124.806 53.3913 123.106 53.2302C120.13 52.9795 117.446 53.7748 115.134 55.5895C114.422 56.1619 113.766 56.7733 113.168 57.4202C113.162 57.4361 113.141 57.4494 113.128 57.4632C108.972 61.8918 104.28 70.0655 102.664 74.6422C102.394 75.3933 102.423 76.2176 102.747 77.0194C103.071 77.8213 103.677 78.5678 104.495 79.1724C105.101 79.6244 105.807 79.9875 106.569 80.2386C107.858 80.6604 109.24 80.7364 110.468 80.453C114.039 79.6405 119.161 77.9859 123.84 76.1347C127.466 74.6982 130.551 73.2584 132.761 71.9704C133.578 71.5034 134.349 70.9929 135.067 70.4419C137.381 68.6295 138.35 66.5609 137.947 64.2943C137.771 63.3498 137.379 62.4134 136.789 61.5283C139.165 61.9087 141.272 61.8016 143.092 61.1981ZM129.716 59.1682L129.765 59.2078L129.821 59.2536L129.872 59.294L129.89 59.2998L129.928 59.3248L129.994 59.3702L130.029 59.3945C130.098 59.4367 133.615 61.6696 134.068 64.3005C134.309 65.698 133.66 66.9793 132.08 68.2165C131.627 68.5643 131.146 68.8908 130.639 69.1946L128.002 66.9606C127.928 66.8939 127.838 66.8375 127.739 66.7948C127.64 66.7521 127.533 66.724 127.425 66.712C127.317 66.7 127.21 66.7045 127.11 66.7251C127.01 66.7457 126.92 66.7821 126.844 66.8321C126.768 66.8821 126.709 66.9447 126.669 67.0161C126.629 67.0876 126.609 67.1664 126.612 67.2481C126.614 67.3297 126.638 67.4125 126.682 67.4914C126.726 67.5703 126.79 67.6439 126.869 67.7077L129.442 69.8882C127.054 71.1648 124.543 72.3168 121.925 73.3378L116.724 69.3599C116.563 69.2366 116.353 69.1607 116.139 69.1489C115.925 69.1371 115.726 69.1904 115.585 69.2971C115.444 69.4037 115.372 69.555 115.386 69.7176C115.401 69.8803 115.499 70.0409 115.66 70.1642L120.523 73.8953C116.355 75.4969 111.979 76.885 108.887 77.5879C108.583 77.6576 108.247 77.6573 107.919 77.5871C107.59 77.5169 107.281 77.3796 107.027 77.191C106.774 77.0024 106.586 76.7702 106.486 76.5209C106.385 76.2716 106.376 76.0153 106.459 75.7816C107.926 71.6223 112.052 64.3546 115.86 60.0349L121.07 63.9541C121.156 64.0194 121.257 64.0717 121.366 64.1074C121.543 64.1655 121.733 64.178 121.903 64.1427C122.074 64.1075 122.215 64.0267 122.303 63.9138C122.392 63.801 122.422 63.6628 122.389 63.5224C122.356 63.382 122.262 63.2478 122.122 63.1422L116.734 59.0884C117.16 58.645 117.621 58.2236 118.116 57.8261C119.695 56.5889 121.348 56.0573 123.188 56.2076C126.664 56.4826 129.688 59.1303 129.719 59.1602L129.716 59.1682ZM136.047 48.6401L131.85 54.1798C131.697 52.6027 132.067 51.3241 132.964 50.3579C133.737 49.5634 134.801 48.9682 136.051 48.6321L136.047 48.6401ZM143.27 57.0803C142.725 57.6744 141.982 58.1406 141.103 58.4404C139.942 58.8249 138.525 58.8685 136.852 58.5712L143.27 57.0803Z" fill="white"/>
<path d="M81.866 65.2127C81.8853 65.2314 81.8995 65.2543 81.9076 65.2795C81.9196 65.3167 81.9179 65.357 81.9028 65.3939C81.8877 65.4307 81.8601 65.462 81.8244 65.4826C81.7888 65.5031 81.7472 65.5118 81.7064 65.5072C81.6657 65.5026 81.6281 65.485 81.5998 65.4572C81.4103 65.2715 81.1492 65.1669 80.8737 65.1664C80.5982 65.1658 80.3307 65.2693 80.13 65.4542C80.0945 65.4858 80.0477 65.5032 79.9998 65.5026C79.9518 65.502 79.9065 65.4835 79.8736 65.451C79.8408 65.4185 79.8231 65.3747 79.8242 65.329C79.8254 65.2833 79.8454 65.2394 79.88 65.2068C80.0146 65.0831 80.1728 64.9853 80.3455 64.9188C80.5182 64.8524 80.7021 64.8187 80.8867 64.8196C81.0712 64.8205 81.2528 64.856 81.421 64.9241C81.5893 64.9922 81.7409 65.0915 81.8672 65.2165L81.866 65.2127Z" fill="white"/>
<path d="M75.9938 62.967C73.3929 65.3859 72.4385 69.2974 73.5269 72.6272L73.5573 72.7201C73.5369 72.738 73.5158 72.7573 73.4958 72.7764C72.3256 73.8722 72.3533 76.0454 73.5601 77.6288C74.1079 78.3601 74.8538 78.8703 75.6626 79.067C76.0596 79.1678 76.4635 79.1712 76.8458 79.0771C77.228 78.983 77.5794 78.7936 77.8752 78.5224C78.1176 78.2978 78.3159 78.0199 78.4597 77.7032C80.9598 78.4869 83.7675 77.8183 85.8461 75.8899C88.4466 73.4698 89.4117 69.6043 88.3226 66.2557C88.8926 65.4994 89.0021 64.3849 88.6566 63.328C88.5095 62.8801 88.2887 62.4605 88.0065 62.0924C86.8988 60.6382 85.1146 60.2742 84.038 61.2782C84.0089 61.3064 83.9799 61.3347 83.9512 61.3641C81.3093 60.2673 78.2582 60.8604 75.9938 62.967ZM83.969 63.4936C84.1826 63.6103 84.4206 63.6345 84.6339 63.561C84.8472 63.4876 85.0196 63.3222 85.1156 63.0989C85.1511 63.0157 85.2016 62.9428 85.2644 62.8844C85.609 62.5632 86.2611 62.7641 86.6859 63.3172C87.1107 63.8703 87.1811 64.6212 86.8354 64.9427C86.8089 64.9654 86.7808 64.9858 86.7514 65.0037C86.5675 65.1198 86.4344 65.3119 86.3772 65.5436C86.32 65.7753 86.3428 66.0304 86.4413 66.2607C87.5813 68.9349 86.8317 72.2279 84.6243 74.2809C82.7658 76.0126 80.2107 76.483 78.117 75.4836C77.987 75.4214 77.8487 75.3923 77.7128 75.3984C77.5769 75.4045 77.4469 75.4456 77.3327 75.5186C77.2185 75.5916 77.1232 75.6946 77.054 75.8198C76.9848 75.9449 76.9436 76.0888 76.9334 76.2406C76.9229 76.5048 76.8222 76.7451 76.652 76.9126C76.5449 77.0033 76.4197 77.0654 76.2845 77.0947C76.1494 77.1241 76.0075 77.1199 75.8684 77.0827C75.4858 76.9869 75.134 76.7423 74.8774 76.3937C74.3533 75.7077 74.2792 74.7846 74.7144 74.3788C74.8009 74.3005 74.9024 74.2444 75.0128 74.214C75.137 74.1786 75.2502 74.1122 75.3445 74.0194C75.4387 73.9267 75.5117 73.8099 75.5583 73.6773C75.6048 73.5446 75.6239 73.3994 75.614 73.2518C75.6041 73.1042 75.5656 72.9578 75.5012 72.823C75.3851 72.5802 75.2848 72.3295 75.2014 72.0731C74.3688 69.5262 75.151 66.4835 77.2113 64.566C79.1736 62.7506 81.8244 62.3282 83.969 63.4936Z" fill="white"/>
<path d="M98.0659 69.0009C98.0659 68.7068 97.9776 68.4193 97.8122 68.1748C97.6469 67.9303 97.4118 67.7396 97.1368 67.627C96.8618 67.5144 96.5591 67.4849 96.2671 67.5421C95.9751 67.5994 95.7068 67.7409 95.4962 67.9487C95.2856 68.1565 95.1421 68.4214 95.0838 68.7098C95.0255 68.9981 95.0551 69.2971 95.1688 69.5689C95.2825 69.8407 95.4753 70.073 95.7227 70.2366C95.97 70.4002 96.261 70.4877 96.5587 70.488C96.9581 70.488 97.3412 70.3314 97.6238 70.0525C97.9064 69.7737 98.0654 69.3954 98.0659 69.0009ZM97.507 69.0009C97.5072 69.1858 97.4518 69.3666 97.348 69.5205C97.2441 69.6743 97.0964 69.7943 96.9235 69.8653C96.7506 69.9362 96.5603 69.955 96.3766 69.9191C96.193 69.8832 96.0242 69.7944 95.8916 69.6638C95.7591 69.5332 95.6687 69.3667 95.6319 69.1853C95.5952 69.004 95.6136 68.816 95.685 68.645C95.7564 68.4741 95.8775 68.3279 96.033 68.2249C96.1885 68.1219 96.3715 68.0667 96.5587 68.0664C96.8098 68.0662 97.0508 68.1645 97.2287 68.3397C97.4065 68.515 97.5066 68.7527 97.507 69.0009Z" fill="white"/>
<path d="M96.0022 69.2974C96.0022 69.3479 96.0161 69.3972 96.0422 69.4392C96.0682 69.4812 96.1052 69.5139 96.1486 69.5333C96.1919 69.5526 96.2396 69.5577 96.2856 69.5478C96.3316 69.538 96.3738 69.5137 96.407 69.478C96.4402 69.4423 96.4628 69.3969 96.472 69.3473C96.4812 69.2978 96.4765 69.2465 96.4586 69.1998C96.4407 69.1532 96.4103 69.1133 96.3713 69.0852C96.3324 69.0571 96.2865 69.042 96.2396 69.042C96.1767 69.042 96.1164 69.0689 96.0718 69.1168C96.0273 69.1647 96.0023 69.2296 96.0022 69.2974ZM96.0902 69.2974C96.0902 69.2656 96.0989 69.2346 96.1153 69.2081C96.1317 69.1817 96.1549 69.1611 96.1822 69.1489C96.2094 69.1367 96.2394 69.1335 96.2683 69.1397C96.2973 69.1458 96.3238 69.1611 96.3447 69.1835C96.3656 69.206 96.3798 69.2345 96.3856 69.2657C96.3914 69.2968 96.3885 69.3291 96.3773 69.3585C96.366 69.3878 96.3469 69.4129 96.3224 69.4306C96.298 69.4483 96.2691 69.4578 96.2396 69.4578C96.2001 69.4579 96.1621 69.441 96.1341 69.4109C96.1061 69.3808 96.0903 69.34 96.0902 69.2974Z" fill="white"/>
<path d="M106.391 68.5127C107.914 63.4415 108.885 56.1881 104.779 50.4789C101.356 45.7017 95.0583 42.9668 86.0649 42.3467C85.823 42.3305 85.5787 42.3609 85.3466 42.4362C85.1144 42.5115 84.899 42.6302 84.7131 42.7852C84.5271 42.9402 84.3743 43.1285 84.2637 43.3389C84.153 43.5494 84.0868 43.7777 84.0688 44.0106C83.6566 49.3182 83.484 54.4724 85.9863 59.1296C88.8459 64.4666 94.7584 68.0808 104.062 70.1798C104.239 70.2195 104.422 70.2329 104.605 70.2195C105.782 73.8429 106.263 77.1501 106 79.8702C105.991 79.9645 106.001 80.0591 106.03 80.1486C106.059 80.2382 106.106 80.3208 106.169 80.3919C106.232 80.463 106.309 80.5211 106.397 80.5629C106.484 80.6047 106.579 80.6294 106.677 80.6355C106.792 80.642 106.907 80.6237 107.015 80.582C107.146 80.5305 107.26 80.4454 107.344 80.3364C107.429 80.2274 107.481 80.0987 107.494 79.9648C107.779 76.9942 107.252 73.4124 105.962 69.5127C106.1 69.3405 106.204 69.146 106.268 68.9391C106.311 68.8036 106.356 68.6608 106.399 68.5141L106.391 68.5127ZM103.736 64.0759C101.564 59.5879 98.6958 55.4375 95.8278 52.7271C95.7592 52.6597 95.6768 52.6065 95.5856 52.5706C95.4944 52.5346 95.3961 52.5167 95.2965 52.5178C95.1968 52.5189 95.0979 52.539 95.0054 52.577C94.9129 52.615 94.8288 52.67 94.7578 52.739C94.6868 52.8079 94.6305 52.8893 94.5921 52.9785C94.5538 53.0676 94.5341 53.1627 94.5343 53.2582C94.5344 53.3537 94.5544 53.4477 94.5931 53.5347C94.6318 53.6216 91.1834 55.0771 91.2545 55.142C97.6867 56.3642 102.152 61.0745 99.6079 67.6926C92.4514 65.8075 91.4072 61.5295 89.2291 57.464C87.4217 54.0884 87.3179 50.1358 87.5703 45.997C94.4278 46.7484 99.1994 48.9351 101.766 52.5138C104.247 55.9677 104.378 60.2942 103.736 64.0759Z" fill="white"/>
<path d="M66.2876 82.7232C66.712 82.4663 66.8485 81.9796 66.606 81.5876L58.4329 68.3181C58.5315 68.1237 58.7247 67.9057 58.9408 67.6066C59.1341 67.3886 59.3804 67.1385 59.6571 66.9373L68.1749 80.7053C68.4174 81.0973 68.9177 81.1986 69.3421 80.9416C69.7666 80.6847 69.903 80.1981 69.6605 79.8061L61.0631 65.8506C61.2867 65.6816 61.552 65.521 61.8173 65.3604C62.0825 65.1999 62.3478 65.0393 62.6017 64.9193L71.2105 78.8342C71.453 79.2262 71.9533 79.3275 72.3777 79.0706C72.8022 78.8136 72.9386 78.327 72.6961 77.935L64.1669 64.2076C64.9059 63.9287 65.5691 63.763 65.967 63.7578L74.1817 77.0358C74.4242 77.4278 74.9244 77.5291 75.3489 77.2722C75.7734 77.0152 75.9098 76.5286 75.6673 76.1366L67.2518 62.4751C66.4333 61.1522 65.1336 60.289 63.5912 59.9767C62.9243 59.8416 62.2649 59.8367 61.6244 59.9213L40.0381 23.7923C39.1287 22.3224 37.0558 21.8598 35.4528 22.8638C34.6683 23.305 34.1491 24.057 33.9216 24.8681C33.6942 25.6792 33.8002 26.5578 34.2435 27.3333L57.3117 62.2623C56.7735 62.9248 56.3377 63.6937 56.1102 64.5048C55.7008 65.9648 55.875 67.543 56.6935 68.8659L65.1204 82.4868C65.3629 82.8788 65.8631 82.9801 66.2876 82.7232Z" fill="white"/>
<g clip-path="url(#clip0)">
<path d="M76.483 68.6286C78.5406 72.2113 77.1894 76.9028 73.4268 79.2402C69.6668 81.5707 64.8532 80.7267 62.5136 77.3267L61.3789 78.0332C64.091 81.9945 69.6953 82.9749 74.0612 80.2516C78.4287 77.5334 79.9996 72.0874 77.6175 67.9222L76.483 68.6286Z" fill="white"/>
<path d="M70.082 73.1914L73.3812 78.4507C74.8347 77.4487 75.9041 76.0011 76.3986 74.3656L70.082 73.1914Z" fill="white"/>
<path d="M63.1562 76.9277C64.081 78.2683 65.4084 79.1659 67.0076 79.5858L68.6993 73.4764L63.1562 76.9277Z" fill="white"/>
<path d="M67.731 79.7546C69.4215 80.0331 71.1965 79.7123 72.7368 78.8497L69.4377 73.5904L67.731 79.7546Z" fill="white"/>
<path d="M70.3008 72.4785L76.5613 73.6424C76.8866 72.0372 76.6331 70.4065 75.8437 69.0272L70.3008 72.4785Z" fill="white"/>
</g>
<path d="M88.0352 70.6648C88.0347 71.2886 88.2381 71.8985 88.6195 72.4173C89.0009 72.9361 89.5432 73.3405 90.1778 73.5794C90.8124 73.8183 91.5107 73.8809 92.1845 73.7593C92.8583 73.6377 93.4773 73.3374 93.963 72.8963C94.4488 72.4552 94.7796 71.8932 94.9135 71.2814C95.0474 70.6696 94.9784 70.0354 94.7154 69.4592C94.4523 68.883 94.0069 68.3906 93.4355 68.0442C92.8641 67.6979 92.1924 67.5133 91.5055 67.5137C90.5856 67.5152 89.7039 67.8477 89.0535 68.4383C88.403 69.0289 88.0369 69.8295 88.0352 70.6648ZM89.5403 70.6648C89.5403 70.3114 89.6557 69.9659 89.872 69.6721C90.0882 69.3783 90.3956 69.1493 90.7552 69.0142C91.1149 68.879 91.5105 68.8438 91.8922 68.9128C92.2739 68.9819 92.6245 69.1523 92.8995 69.4023C93.1746 69.6523 93.3618 69.9708 93.4375 70.3175C93.5131 70.6641 93.4739 71.0234 93.3246 71.3498C93.1754 71.6762 92.9229 71.955 92.5991 72.1511C92.2753 72.3472 91.8947 72.4516 91.5055 72.4512C90.9841 72.4507 90.4842 72.2623 90.1157 71.9273C89.7472 71.5923 89.5403 71.1382 89.5403 70.6648Z" fill="white"/>
<path d="M93.0497 69.9922C93.0497 69.8941 93.0203 69.7982 92.9652 69.7166C92.9101 69.6351 92.8319 69.5715 92.7403 69.5339C92.6487 69.4963 92.5479 69.4865 92.4506 69.5056C92.3534 69.5247 92.2641 69.5719 92.1939 69.6412C92.1238 69.7105 92.076 69.7989 92.0566 69.8951C92.0372 69.9913 92.047 70.091 92.0849 70.1817C92.1228 70.2723 92.1869 70.3498 92.2693 70.4044C92.3517 70.459 92.4486 70.4882 92.5477 70.4883C92.6808 70.4883 92.8084 70.436 92.9025 70.343C92.9966 70.25 93.0495 70.1238 93.0497 69.9922ZM92.8636 69.9922C92.8636 70.0539 92.8452 70.1142 92.8106 70.1655C92.776 70.2168 92.7268 70.2569 92.6692 70.2805C92.6117 70.3042 92.5483 70.3105 92.4871 70.2985C92.426 70.2865 92.3697 70.2569 92.3256 70.2133C92.2815 70.1698 92.2514 70.1142 92.2391 70.0537C92.2269 69.9932 92.233 69.9305 92.2568 69.8735C92.2806 69.8165 92.3209 69.7677 92.3727 69.7333C92.4245 69.699 92.4854 69.6806 92.5477 69.6805C92.6314 69.6804 92.7116 69.7132 92.7709 69.7717C92.8301 69.8301 92.8634 69.9094 92.8636 69.9922Z" fill="white"/>
<path d="M98.3163 74.2378C98.7169 74.1228 99.0726 73.8884 99.3383 73.5643C99.6041 73.2402 99.768 72.841 99.8093 72.4171C99.8507 71.9933 99.7675 71.5639 99.5704 71.1833C99.3734 70.8026 99.0712 70.4878 98.7022 70.2787C98.3332 70.0696 97.9139 69.9756 97.4974 70.0086C97.0809 70.0416 96.6859 70.2 96.3624 70.464C96.0389 70.7279 95.8014 71.0854 95.6799 71.4913C95.5584 71.8971 95.5585 72.3331 95.6801 72.744C95.8435 73.2941 96.2127 73.7602 96.7068 74.0401C97.2009 74.3201 97.7797 74.3912 98.3163 74.2378ZM98.0505 73.3373C97.8236 73.4027 97.5813 73.3975 97.3545 73.3224C97.1276 73.2473 96.9263 73.1057 96.776 72.9155C96.6257 72.7254 96.5332 72.4951 96.5102 72.254C96.4871 72.0129 96.5346 71.7717 96.6466 71.5609C96.7585 71.3501 96.93 71.1792 97.1392 71.0699C97.3484 70.9605 97.586 70.9176 97.8219 70.9466C98.0579 70.9755 98.2815 71.075 98.4646 71.2325C98.6477 71.39 98.7819 71.5984 98.8504 71.8313C98.9422 72.1434 98.9095 72.4773 98.7595 72.7597C98.6095 73.042 98.3545 73.2498 98.0505 73.3373Z" fill="white"/>
<path d="M96.9961 71.3602C96.9332 71.3783 96.877 71.4137 96.8344 71.4617C96.7919 71.5098 96.765 71.5684 96.7571 71.6302C96.7492 71.6921 96.7607 71.7543 96.7901 71.809C96.8196 71.8638 96.8656 71.9086 96.9225 71.9378C96.9793 71.9671 97.0444 71.9794 97.1095 71.9733C97.1746 71.9672 97.2368 71.9428 97.2882 71.9034C97.3396 71.864 97.3779 71.8112 97.3983 71.7518C97.4187 71.6923 97.4203 71.6289 97.4028 71.5695C97.3793 71.4897 97.3233 71.4229 97.247 71.3837C97.1707 71.3445 97.0805 71.336 96.9961 71.3602ZM97.029 71.4718C97.0685 71.4603 97.1105 71.4603 97.1495 71.4715C97.1885 71.4828 97.2229 71.5049 97.2482 71.535C97.2736 71.5651 97.2888 71.602 97.2919 71.6408C97.2951 71.6797 97.286 71.7188 97.2659 71.7533C97.2458 71.7878 97.2155 71.8161 97.1789 71.8346C97.1423 71.8531 97.101 71.861 97.0602 71.8573C97.0195 71.8536 96.9811 71.8384 96.9499 71.8137C96.9187 71.789 96.8962 71.7559 96.8851 71.7186C96.8702 71.6684 96.8771 71.6143 96.9041 71.568C96.931 71.5217 96.976 71.4871 97.029 71.4718Z" fill="white"/>
<path d="M47.7113 63.6595C50.2278 67.6189 53.7516 70.9788 58.0167 73.4855C58.2064 73.5969 58.3351 73.7727 58.3745 73.9741C58.4138 74.1755 58.3606 74.3861 58.2265 74.5596C58.0924 74.7331 57.8885 74.8552 57.6595 74.8991C57.4305 74.943 56.9912 74.8287 56.8015 74.7174C52.3186 72.0785 43.9126 62.8912 41.8648 59.4411C41.8084 59.3509 46.0817 64.266 46.0703 64.1618C46.0863 64.3086 49.3722 67.4399 49.4841 67.2865C49.5961 67.1331 47.9497 64.8256 47.9497 64.8256L47.4412 64.0878L47.3587 63.8762L47.3201 63.664L47.3543 63.5025L47.4325 63.3405L47.4305 63.3444C47.4305 63.3444 51.5137 59.7513 51.6102 59.9048L47.7113 63.6595Z" fill="white"/>
<path d="M112.979 72.42C116.624 70.5514 119.845 67.7167 122.4 64.1301C122.514 63.9705 122.677 63.8722 122.854 63.8569C123.032 63.8416 123.208 63.9105 123.345 64.0485C123.482 64.1864 123.569 64.3821 123.585 64.5925C123.602 64.8028 123.548 65.0107 123.434 65.1703C120.745 68.9397 117.356 71.9189 113.523 73.8835C113.44 73.9252 113.351 73.9466 113.26 73.9464C113.105 73.9465 112.954 73.8831 112.832 73.7671C112.71 73.6511 112.625 73.4896 112.591 73.3099C112.557 73.1303 112.576 72.9435 112.646 72.7813C112.715 72.6192 112.83 72.4915 112.971 72.42L112.979 72.42Z" fill="white"/>
<path d="M67.56 96.7246C67.6062 96.6928 67.6517 96.6594 67.6967 96.6255C68.1153 96.8182 69.1393 97.2689 69.2273 97.3198C69.1125 97.382 69.0008 97.4499 68.8933 97.5237C68.1677 98.0219 67.6741 98.7412 67.503 99.5496C67.431 99.8896 67.6778 100.217 68.0542 100.281C69.0761 100.455 70.1377 100.229 70.9672 99.6591C71.5581 99.2534 71.9916 98.6996 72.2259 98.0719C72.7488 98.1722 73.2762 98.2513 73.8066 98.3103C73.3679 98.756 73.0662 99.3015 72.9404 99.8959C72.9059 100.059 72.9445 100.228 73.048 100.365C73.1514 100.503 73.311 100.597 73.4917 100.628C74.5135 100.802 75.5753 100.575 76.4046 100.005C77.01 99.5898 77.4508 99.0189 77.6806 98.3722C81.021 98.108 84.322 97.0178 87.1858 95.0516C87.4913 94.8418 87.5512 94.4486 87.3198 94.1734C87.0883 93.8981 86.6531 93.8449 86.3475 94.0547C81.8013 97.1761 76.0635 97.9116 70.9955 96.4882C71.2146 95.0075 70.2997 93.5264 68.6927 92.9613C68.5214 92.901 68.3303 92.9047 68.1617 92.9716C67.9926 93.0388 67.8605 93.1631 67.7933 93.3181C67.5301 93.9249 67.4796 94.5596 67.6074 95.1558C67.1206 94.9039 66.6462 94.6288 66.1856 94.3313C67.0913 93.0111 66.8733 91.2527 65.5718 90.1569C65.2919 89.9212 64.8535 89.9352 64.5908 90.1888C63.9959 90.7648 63.653 91.4952 63.6057 92.2713C63.3188 91.9901 63.0415 91.6973 62.7749 91.3929C62.8298 90.6068 62.5778 89.8374 62.0497 89.2012C61.4611 88.4923 60.6013 88.0335 59.6291 87.9093C59.25 87.8607 58.8982 88.0992 58.8434 88.442C58.7033 89.3203 58.9503 90.1945 59.5388 90.9034C60.0668 91.5394 60.8132 91.9731 61.663 92.1456C62.4816 93.084 63.3915 93.9216 64.3738 94.6548C63.8864 94.7591 63.4152 94.9553 62.9919 95.2459C62.8882 95.3171 62.7871 95.3944 62.6918 95.4755C62.4125 95.7132 62.399 96.1098 62.6614 96.3613C63.9526 97.5992 66.0586 97.7554 67.56 96.7246ZM74.631 99.3907C74.9607 98.9307 75.5104 98.5937 76.1042 98.485C75.7744 98.945 75.2246 99.2821 74.631 99.3907ZM68.9277 94.5536C69.3736 94.9361 69.6316 95.4692 69.6402 96.0253C69.1943 95.6427 68.9362 95.1096 68.9277 94.5536ZM64.9887 92.5256C64.9782 92.2446 65.0298 91.9701 65.1381 91.7151C65.3966 92.2204 65.4182 92.8035 65.1981 93.3244C65.071 93.077 64.9992 92.8065 64.9887 92.5256ZM69.1935 99.0443C69.523 98.5846 70.0728 98.2473 70.6667 98.1386C70.3372 98.5985 69.7872 98.9355 69.1935 99.0443ZM60.2589 89.4077C60.5206 89.5447 60.7513 89.7294 60.9383 89.9545C61.1252 90.1797 61.2567 90.4315 61.3292 90.6968C61.0677 90.5597 60.8369 90.3751 60.6499 90.15C60.4629 89.9249 60.3314 89.6731 60.2589 89.4077ZM66.1699 96.0083C65.589 96.2143 64.9422 96.1952 64.3818 95.962C64.9625 95.7561 65.6094 95.7753 66.1699 96.0083Z" fill="white"/>
<path d="M50.8945 75.0483C50.8945 96.041 69.8005 113.121 93.0508 113.121C98.5879 113.125 104.071 112.142 109.188 110.23C114.304 108.318 118.953 105.514 122.868 101.978C126.784 98.4415 129.889 94.243 132.006 89.6222C134.123 85.0015 135.211 80.0491 135.207 75.0483C135.207 74.63 135.022 74.229 134.695 73.9333C134.367 73.6376 133.923 73.4712 133.46 73.4707H52.6413C52.1782 73.4712 51.7342 73.6376 51.4067 73.9333C51.0793 74.229 50.8951 74.63 50.8945 75.0483V75.0483ZM131.675 76.6258C131.557 78.9933 131.174 81.3439 130.53 83.6413H55.5758C54.9285 81.3444 54.5435 78.9936 54.4271 76.6258H131.675ZM55.9683 84.9405H130.135C127.772 92.1673 122.883 98.5096 116.199 103.02C109.515 107.531 101.395 109.967 93.0508 109.966C75.534 109.966 60.703 99.391 55.9683 84.9405Z" fill="white"/>
<rect x="53.9062" y="74" width="78.09" height="13.1062" fill="white"/>
<path d="M84.5195 112H102.587L101.081 113.5L100.533 114.964L86.3868 115L86.0251 113.5L84.5195 112Z" fill="white"/>
<defs>
<clipPath id="clip0">
<rect width="19.1292" height="17.8428" fill="white" transform="matrix(0.848893 -0.528565 0.531395 0.847124 58.9219 74.1133)"/>
</clipPath>
</defs>
</svg>
