<svg width="79" height="67" viewBox="0 0 79 67" fill="none" xmlns="http://www.w3.org/2000/svg">
<g clip-path="url(#clip0)">
<path d="M42.1341 0H36.8674C36.1403 0 35.5508 0.499949 35.5508 1.11667V3.35C35.5508 3.96672 36.1403 4.46667 36.8674 4.46667H42.1341C42.8613 4.46667 43.4508 3.96672 43.4508 3.35V1.11667C43.4508 0.499949 42.8613 0 42.1341 0Z" fill="white"/>
<path d="M20.566 11.1678H58.4386C58.8947 11.1676 59.3182 10.9672 59.558 10.6381C59.7977 10.309 59.8196 9.89808 59.6157 9.55202L58.299 7.31869C58.0761 6.94044 57.6205 6.7014 57.1219 6.70117H21.8826C21.3841 6.7014 20.9284 6.94044 20.7055 7.31869L19.3889 9.55202C19.185 9.89808 19.2068 10.309 19.4465 10.6381C19.6863 10.9672 20.1098 11.1676 20.566 11.1678Z" fill="white"/>
<path d="M62.573 51.369H60.5677V17.869H61.0707C61.5693 17.8688 62.0249 17.6297 62.2478 17.2515L63.5645 15.0182C63.7684 14.6721 63.7466 14.2612 63.5068 13.9321C63.267 13.603 62.8435 13.4026 62.3874 13.4023H16.6148C16.1586 13.4026 15.7351 13.603 15.4953 13.9321C15.2556 14.2612 15.2338 14.6721 15.4377 15.0182L16.7543 17.2515C16.9772 17.6297 17.4329 17.8688 17.9314 17.869H18.4344V51.369H16.4291C15.9925 51.3692 15.5844 51.5531 15.3396 51.8597C15.0948 52.1664 15.0453 52.5561 15.2073 52.9L16.7873 56.25C16.987 56.6739 17.4708 56.9521 18.0091 56.9523H60.993C61.5313 56.9521 62.0152 56.6739 62.2149 56.25L63.7949 52.9C63.9569 52.5561 63.9073 52.1664 63.6626 51.8597C63.4178 51.5531 63.0097 51.3692 62.573 51.369ZM22.3844 43.5523V24.569C22.3844 22.1021 24.7424 20.1023 27.6511 20.1023H51.3511C54.2598 20.1023 56.6177 22.1021 56.6177 24.569V43.5523C56.6177 46.0192 54.2598 48.019 51.3511 48.019H27.6511C24.7424 48.019 22.3844 46.0192 22.3844 43.5523Z" fill="white"/>
<path d="M27.4841 59.1836H21.0667C20.3395 59.1836 19.75 59.6835 19.75 60.3003V64.7669C19.75 66.0004 20.929 67.0003 22.3833 67.0003C23.8377 67.0003 25.0167 66.0004 25.0167 64.7669V63.6503C27.5275 63.6503 28.44 61.8446 28.7757 60.5236C28.8549 60.1948 28.7555 59.8533 28.5051 59.5935C28.2546 59.3337 27.8797 59.1832 27.4841 59.1836Z" fill="white"/>
<path d="M57.9349 59.1836H51.5175C51.1218 59.1832 50.7469 59.3337 50.4965 59.5935C50.2461 59.8533 50.1467 60.1948 50.2258 60.5236C50.5616 61.8446 51.474 63.6503 53.9849 63.6503V64.7669C53.9849 66.0004 55.1639 67.0003 56.6182 67.0003C58.0726 67.0003 59.2516 66.0004 59.2516 64.7669V60.3003C59.2516 59.6835 58.6621 59.1836 57.9349 59.1836Z" fill="white"/>
<path d="M46.2322 34.7703C45.2278 36.2032 43.8518 37.4233 42.2085 38.338C41.8145 38.5664 41.3056 38.5962 40.8784 38.4157C40.4512 38.2352 40.1726 37.8728 40.1503 37.4685C40.1279 37.0641 40.3653 36.6812 40.7707 36.4676C41.1535 36.2493 41.5182 36.0091 41.8622 35.7485C41.8097 33.9498 41.11 32.2077 39.8569 30.7559C39.636 31.4915 39.2643 32.1885 38.7588 32.815C37.9851 33.7012 37.0906 34.5067 36.0939 35.2147C35.8503 35.4012 35.6146 35.5944 35.375 35.7842C36.4988 36.8625 37.3746 38.1097 37.957 39.4614C38.1325 39.8392 38.0524 40.268 37.7478 40.5813C37.4432 40.8946 36.962 41.043 36.4912 40.9687C36.0205 40.8944 35.6344 40.6093 35.4829 40.2241C34.8885 38.8524 33.924 37.6176 32.6666 36.6184C32.7073 37.6538 32.4353 38.6808 31.8766 39.6021C31.6804 39.9204 31.4618 40.2263 31.2446 40.5301C30.5454 41.5049 30.1583 42.0934 30.3163 42.8751C30.6763 43.9907 31.3985 44.9983 32.4006 45.7829H47.8056C48.638 44.4163 48.9333 42.8598 48.6483 41.3408C48.3862 39.0327 47.5636 36.7956 46.2322 34.7703Z" fill="white"/>
<path d="M29.0091 45.782C28.3665 45.0297 27.9273 44.1665 27.7227 43.2539C27.534 41.868 27.9898 40.4744 28.9933 39.369C29.1829 39.1055 29.3738 38.8408 29.5436 38.565C30.2854 37.3027 30.1852 35.802 29.2803 34.6187C28.948 34.2064 28.9789 33.6572 29.3559 33.2736C29.7329 32.89 30.3644 32.7653 30.9024 32.9683C31.8051 33.3133 32.6575 33.7461 33.4423 34.258C33.7359 34.0213 34.0295 33.7834 34.3258 33.5568C35.1685 32.9628 35.9275 32.2884 36.5878 31.5468C37.4018 30.6862 37.6033 29.5195 37.1145 28.4971C36.7974 28.0518 36.885 27.4798 37.3256 27.1179C37.7662 26.7559 38.4431 26.7 38.9578 26.9829C41.5691 28.4865 43.4177 30.7683 44.1363 33.3747C44.4054 32.9649 44.6361 32.5378 44.8262 32.0973C44.9931 31.71 45.3981 31.4322 45.8795 31.3748C46.3614 31.314 46.8429 31.4863 47.1277 31.8215C49.4569 34.5545 50.8837 37.7652 51.2607 41.1222C51.4955 42.6896 51.3142 44.2817 50.7301 45.782H51.349C52.8033 45.782 53.9823 44.7821 53.9823 43.5487V24.5654C53.9823 23.3319 52.8033 22.332 51.349 22.332H27.649C26.1946 22.332 25.0156 23.3319 25.0156 24.5654V43.5487C25.0156 44.7821 26.1946 45.782 27.649 45.782H29.0091Z" fill="white"/>
</g>
<defs>
<clipPath id="clip0">
<rect width="79" height="67" fill="white"/>
</clipPath>
</defs>
</svg>
