<svg width="72" height="67" viewBox="0 0 72 67" fill="none" xmlns="http://www.w3.org/2000/svg">
<g clip-path="url(#clip0)">
<path d="M57.81 19.9444L62.121 15.9327L57.879 11.9839L53.2673 16.2754C49.0543 13.4971 44.138 11.7848 39 11.3063V5.58333H45V0H27V5.58333H33V11.3063C27.862 11.7848 22.9458 13.4971 18.7328 16.2754L14.121 11.9839L9.87902 15.9327L14.19 19.9444C10.166 23.9091 7.47794 28.8838 6.45791 34.2541C5.43789 39.6244 6.13053 45.1551 8.4503 50.1632C10.7701 55.1714 14.6154 59.4376 19.5113 62.4349C24.4073 65.4323 30.1395 67.0297 36 67.0297C41.8605 67.0297 47.5927 65.4323 52.4887 62.4349C57.3847 59.4376 61.23 55.1714 63.5497 50.1632C65.8695 45.1551 66.5622 39.6244 65.5421 34.2541C64.5221 28.8838 61.8341 23.9091 57.81 19.9444ZM36 61.4167C31.2533 61.4167 26.6131 60.1068 22.6663 57.6528C18.7196 55.1988 15.6434 51.7108 13.8269 47.6299C12.0104 43.549 11.5351 39.0586 12.4612 34.7263C13.3872 30.3941 15.673 26.4147 19.0295 23.2913C22.3859 20.1679 26.6623 18.0409 31.3179 17.1791C35.9734 16.3174 40.799 16.7597 45.1844 18.45C49.5699 20.1404 53.3181 23.0029 55.9553 26.6756C58.5924 30.3483 60 34.6662 60 39.0833C59.9929 45.0045 57.462 50.6812 52.9627 54.868C48.4634 59.0549 42.363 61.41 36 61.4167Z" fill="white"/>
<path d="M36 22.334V39.084H18C18 42.3968 19.0557 45.6353 21.0335 48.3898C23.0114 51.1443 25.8226 53.2912 29.1117 54.559C32.4008 55.8267 36.02 56.1584 39.5116 55.5121C43.0033 54.8658 46.2106 53.2706 48.7279 50.928C51.2453 48.5855 52.9596 45.6009 53.6541 42.3517C54.3487 39.1026 53.9922 35.7347 52.6298 32.674C51.2675 29.6134 48.9604 26.9974 46.0003 25.1569C43.0402 23.3164 39.5601 22.334 36 22.334Z" fill="white"/>
</g>
<defs>
<clipPath id="clip0">
<rect width="72" height="67" fill="white"/>
</clipPath>
</defs>
</svg>
